<?xml version="1.0" encoding="utf-8" standalone="no"?>
<!DOCTYPE svg PUBLIC "-//W3C//DTD SVG 1.1//EN"
  "http://www.w3.org/Graphics/SVG/1.1/DTD/svg11.dtd">
<svg xmlns:xlink="http://www.w3.org/1999/xlink" width="666pt" height="308.88pt" viewBox="0 0 666 308.88" xmlns="http://www.w3.org/2000/svg" version="1.1">
 <metadata>
  <rdf:RDF xmlns:dc="http://purl.org/dc/elements/1.1/" xmlns:cc="http://creativecommons.org/ns#" xmlns:rdf="http://www.w3.org/1999/02/22-rdf-syntax-ns#">
   <cc:Work>
    <dc:type rdf:resource="http://purl.org/dc/dcmitype/StillImage"/>
    <dc:date>2025-07-24T15:16:13.911567</dc:date>
    <dc:format>image/svg+xml</dc:format>
    <dc:creator>
     <cc:Agent>
      <dc:title>Matplotlib v3.10.1, https://matplotlib.org/</dc:title>
     </cc:Agent>
    </dc:creator>
   </cc:Work>
  </rdf:RDF>
 </metadata>
 <defs>
  <style type="text/css">*{stroke-linejoin: round; stroke-linecap: butt}</style>
 </defs>
 <g id="figure_1">
  <g id="patch_1">
   <path d="M 0 308.88 
L 666 308.88 
L 666 0 
L 0 0 
z
" style="fill: #ffffff"/>
  </g>
  <g id="axes_1">
   <g id="patch_2">
    <path d="M 41.94149 285.635835 
L 656.326635 285.635835 
L 656.326635 3.00024 
L 41.94149 3.00024 
z
" style="fill: #ffffff"/>
   </g>
   <g id="PathCollection_1">
    <defs>
     <path id="md36b2a36f9" d="M -3 3 
L 3 -3 
M -3 -3 
L 3 3 
" style="stroke: #ff0000; stroke-width: 1.5"/>
    </defs>
    <g clip-path="url(#p45c00dd166)">
     <use xlink:href="#md36b2a36f9" x="465.259261" y="15.847312" style="fill: #ff0000; stroke: #ff0000; stroke-width: 1.5"/>
    </g>
   </g>
   <g id="matplotlib.axis_1">
    <g id="xtick_1">
     <g id="line2d_1">
      <defs>
       <path id="ma010bb0ced" d="M 0 0 
L 0 3.5 
" style="stroke: #000000; stroke-width: 0.8"/>
      </defs>
      <g>
       <use xlink:href="#ma010bb0ced" x="41.94149" y="272.552387" style="stroke: #000000; stroke-width: 0.8"/>
      </g>
     </g>
     <g id="text_1">
      <!-- 0 -->
      <g transform="translate(38.604928 288.141762) scale(0.12 -0.12)">
       <defs>
        <path id="ArialMT-30" d="M 266 2259 
Q 266 3072 433 3567 
Q 600 4063 929 4331 
Q 1259 4600 1759 4600 
Q 2128 4600 2406 4451 
Q 2684 4303 2865 4023 
Q 3047 3744 3150 3342 
Q 3253 2941 3253 2259 
Q 3253 1453 3087 958 
Q 2922 463 2592 192 
Q 2263 -78 1759 -78 
Q 1097 -78 719 397 
Q 266 969 266 2259 
z
M 844 2259 
Q 844 1131 1108 757 
Q 1372 384 1759 384 
Q 2147 384 2411 759 
Q 2675 1134 2675 2259 
Q 2675 3391 2411 3762 
Q 2147 4134 1753 4134 
Q 1366 4134 1134 3806 
Q 844 3388 844 2259 
z
" transform="scale(0.015625)"/>
       </defs>
       <use xlink:href="#ArialMT-30"/>
      </g>
     </g>
    </g>
    <g id="xtick_2">
     <g id="line2d_2">
      <g>
       <use xlink:href="#ma010bb0ced" x="137.939169" y="272.552387" style="stroke: #000000; stroke-width: 0.8"/>
      </g>
     </g>
     <g id="text_2">
      <!-- 5 -->
      <g transform="translate(134.602606 288.141762) scale(0.12 -0.12)">
       <defs>
        <path id="ArialMT-35" d="M 266 1200 
L 856 1250 
Q 922 819 1161 601 
Q 1400 384 1738 384 
Q 2144 384 2425 690 
Q 2706 997 2706 1503 
Q 2706 1984 2436 2262 
Q 2166 2541 1728 2541 
Q 1456 2541 1237 2417 
Q 1019 2294 894 2097 
L 366 2166 
L 809 4519 
L 3088 4519 
L 3088 3981 
L 1259 3981 
L 1013 2750 
Q 1425 3038 1878 3038 
Q 2478 3038 2890 2622 
Q 3303 2206 3303 1553 
Q 3303 931 2941 478 
Q 2500 -78 1738 -78 
Q 1113 -78 717 272 
Q 322 622 266 1200 
z
" transform="scale(0.015625)"/>
       </defs>
       <use xlink:href="#ArialMT-35"/>
      </g>
     </g>
    </g>
    <g id="xtick_3">
     <g id="line2d_3">
      <g>
       <use xlink:href="#ma010bb0ced" x="233.936848" y="272.552387" style="stroke: #000000; stroke-width: 0.8"/>
      </g>
     </g>
     <g id="text_3">
      <!-- 10 -->
      <g transform="translate(227.263723 288.141762) scale(0.12 -0.12)">
       <defs>
        <path id="ArialMT-31" d="M 2384 0 
L 1822 0 
L 1822 3584 
Q 1619 3391 1289 3197 
Q 959 3003 697 2906 
L 697 3450 
Q 1169 3672 1522 3987 
Q 1875 4303 2022 4600 
L 2384 4600 
L 2384 0 
z
" transform="scale(0.015625)"/>
       </defs>
       <use xlink:href="#ArialMT-31"/>
       <use xlink:href="#ArialMT-30" transform="translate(55.615234 0)"/>
      </g>
     </g>
    </g>
    <g id="xtick_4">
     <g id="line2d_4">
      <g>
       <use xlink:href="#ma010bb0ced" x="329.934527" y="272.552387" style="stroke: #000000; stroke-width: 0.8"/>
      </g>
     </g>
     <g id="text_4">
      <!-- 15 -->
      <g transform="translate(323.261402 288.141762) scale(0.12 -0.12)">
       <use xlink:href="#ArialMT-31"/>
       <use xlink:href="#ArialMT-35" transform="translate(55.615234 0)"/>
      </g>
     </g>
    </g>
    <g id="xtick_5">
     <g id="line2d_5">
      <g>
       <use xlink:href="#ma010bb0ced" x="425.932206" y="272.552387" style="stroke: #000000; stroke-width: 0.8"/>
      </g>
     </g>
     <g id="text_5">
      <!-- 20 -->
      <g transform="translate(419.259081 288.141762) scale(0.12 -0.12)">
       <defs>
        <path id="ArialMT-32" d="M 3222 541 
L 3222 0 
L 194 0 
Q 188 203 259 391 
Q 375 700 629 1000 
Q 884 1300 1366 1694 
Q 2113 2306 2375 2664 
Q 2638 3022 2638 3341 
Q 2638 3675 2398 3904 
Q 2159 4134 1775 4134 
Q 1369 4134 1125 3890 
Q 881 3647 878 3216 
L 300 3275 
Q 359 3922 746 4261 
Q 1134 4600 1788 4600 
Q 2447 4600 2831 4234 
Q 3216 3869 3216 3328 
Q 3216 3053 3103 2787 
Q 2991 2522 2730 2228 
Q 2469 1934 1863 1422 
Q 1356 997 1212 845 
Q 1069 694 975 541 
L 3222 541 
z
" transform="scale(0.015625)"/>
       </defs>
       <use xlink:href="#ArialMT-32"/>
       <use xlink:href="#ArialMT-30" transform="translate(55.615234 0)"/>
      </g>
     </g>
    </g>
    <g id="xtick_6">
     <g id="line2d_6">
      <g>
       <use xlink:href="#ma010bb0ced" x="521.929885" y="272.552387" style="stroke: #000000; stroke-width: 0.8"/>
      </g>
     </g>
     <g id="text_6">
      <!-- 25 -->
      <g transform="translate(515.25676 288.141762) scale(0.12 -0.12)">
       <use xlink:href="#ArialMT-32"/>
       <use xlink:href="#ArialMT-35" transform="translate(55.615234 0)"/>
      </g>
     </g>
    </g>
    <g id="xtick_7">
     <g id="line2d_7">
      <g>
       <use xlink:href="#ma010bb0ced" x="617.927563" y="272.552387" style="stroke: #000000; stroke-width: 0.8"/>
      </g>
     </g>
     <g id="text_7">
      <!-- 30 -->
      <g transform="translate(611.254438 288.141762) scale(0.12 -0.12)">
       <defs>
        <path id="ArialMT-33" d="M 269 1209 
L 831 1284 
Q 928 806 1161 595 
Q 1394 384 1728 384 
Q 2125 384 2398 659 
Q 2672 934 2672 1341 
Q 2672 1728 2419 1979 
Q 2166 2231 1775 2231 
Q 1616 2231 1378 2169 
L 1441 2663 
Q 1497 2656 1531 2656 
Q 1891 2656 2178 2843 
Q 2466 3031 2466 3422 
Q 2466 3731 2256 3934 
Q 2047 4138 1716 4138 
Q 1388 4138 1169 3931 
Q 950 3725 888 3313 
L 325 3413 
Q 428 3978 793 4289 
Q 1159 4600 1703 4600 
Q 2078 4600 2393 4439 
Q 2709 4278 2876 4000 
Q 3044 3722 3044 3409 
Q 3044 3113 2884 2869 
Q 2725 2625 2413 2481 
Q 2819 2388 3044 2092 
Q 3269 1797 3269 1353 
Q 3269 753 2831 336 
Q 2394 -81 1725 -81 
Q 1122 -81 723 278 
Q 325 638 269 1209 
z
" transform="scale(0.015625)"/>
       </defs>
       <use xlink:href="#ArialMT-33"/>
       <use xlink:href="#ArialMT-30" transform="translate(55.615234 0)"/>
      </g>
     </g>
    </g>
    <g id="xtick_8">
     <g id="line2d_8">
      <g>
       <use xlink:href="#ma010bb0ced" x="656.326635" y="272.552387" style="stroke: #000000; stroke-width: 0.8"/>
      </g>
     </g>
     <g id="text_8">
      <!-- 32 -->
      <g transform="translate(649.65351 288.141762) scale(0.12 -0.12)">
       <use xlink:href="#ArialMT-33"/>
       <use xlink:href="#ArialMT-32" transform="translate(55.615234 0)"/>
      </g>
     </g>
    </g>
    <g id="text_9">
     <!-- time (min) -->
     <g transform="translate(322.469687 303.262387) scale(0.12 -0.12)">
      <defs>
       <path id="ArialMT-74" d="M 1650 503 
L 1731 6 
Q 1494 -44 1306 -44 
Q 1000 -44 831 53 
Q 663 150 594 308 
Q 525 466 525 972 
L 525 2881 
L 113 2881 
L 113 3319 
L 525 3319 
L 525 4141 
L 1084 4478 
L 1084 3319 
L 1650 3319 
L 1650 2881 
L 1084 2881 
L 1084 941 
Q 1084 700 1114 631 
Q 1144 563 1211 522 
Q 1278 481 1403 481 
Q 1497 481 1650 503 
z
" transform="scale(0.015625)"/>
       <path id="ArialMT-69" d="M 425 3934 
L 425 4581 
L 988 4581 
L 988 3934 
L 425 3934 
z
M 425 0 
L 425 3319 
L 988 3319 
L 988 0 
L 425 0 
z
" transform="scale(0.015625)"/>
       <path id="ArialMT-6d" d="M 422 0 
L 422 3319 
L 925 3319 
L 925 2853 
Q 1081 3097 1340 3245 
Q 1600 3394 1931 3394 
Q 2300 3394 2536 3241 
Q 2772 3088 2869 2813 
Q 3263 3394 3894 3394 
Q 4388 3394 4653 3120 
Q 4919 2847 4919 2278 
L 4919 0 
L 4359 0 
L 4359 2091 
Q 4359 2428 4304 2576 
Q 4250 2725 4106 2815 
Q 3963 2906 3769 2906 
Q 3419 2906 3187 2673 
Q 2956 2441 2956 1928 
L 2956 0 
L 2394 0 
L 2394 2156 
Q 2394 2531 2256 2718 
Q 2119 2906 1806 2906 
Q 1569 2906 1367 2781 
Q 1166 2656 1075 2415 
Q 984 2175 984 1722 
L 984 0 
L 422 0 
z
" transform="scale(0.015625)"/>
       <path id="ArialMT-65" d="M 2694 1069 
L 3275 997 
Q 3138 488 2766 206 
Q 2394 -75 1816 -75 
Q 1088 -75 661 373 
Q 234 822 234 1631 
Q 234 2469 665 2931 
Q 1097 3394 1784 3394 
Q 2450 3394 2872 2941 
Q 3294 2488 3294 1666 
Q 3294 1616 3291 1516 
L 816 1516 
Q 847 969 1125 678 
Q 1403 388 1819 388 
Q 2128 388 2347 550 
Q 2566 713 2694 1069 
z
M 847 1978 
L 2700 1978 
Q 2663 2397 2488 2606 
Q 2219 2931 1791 2931 
Q 1403 2931 1139 2672 
Q 875 2413 847 1978 
z
" transform="scale(0.015625)"/>
       <path id="ArialMT-20" transform="scale(0.015625)"/>
       <path id="ArialMT-28" d="M 1497 -1347 
Q 1031 -759 709 28 
Q 388 816 388 1659 
Q 388 2403 628 3084 
Q 909 3875 1497 4659 
L 1900 4659 
Q 1522 4009 1400 3731 
Q 1209 3300 1100 2831 
Q 966 2247 966 1656 
Q 966 153 1900 -1347 
L 1497 -1347 
z
" transform="scale(0.015625)"/>
       <path id="ArialMT-6e" d="M 422 0 
L 422 3319 
L 928 3319 
L 928 2847 
Q 1294 3394 1984 3394 
Q 2284 3394 2536 3286 
Q 2788 3178 2913 3003 
Q 3038 2828 3088 2588 
Q 3119 2431 3119 2041 
L 3119 0 
L 2556 0 
L 2556 2019 
Q 2556 2363 2490 2533 
Q 2425 2703 2258 2804 
Q 2091 2906 1866 2906 
Q 1506 2906 1245 2678 
Q 984 2450 984 1813 
L 984 0 
L 422 0 
z
" transform="scale(0.015625)"/>
       <path id="ArialMT-29" d="M 791 -1347 
L 388 -1347 
Q 1322 153 1322 1656 
Q 1322 2244 1188 2822 
Q 1081 3291 891 3722 
Q 769 4003 388 4659 
L 791 4659 
Q 1378 3875 1659 3084 
Q 1900 2403 1900 1659 
Q 1900 816 1576 28 
Q 1253 -759 791 -1347 
z
" transform="scale(0.015625)"/>
      </defs>
      <use xlink:href="#ArialMT-74"/>
      <use xlink:href="#ArialMT-69" transform="translate(27.783203 0)"/>
      <use xlink:href="#ArialMT-6d" transform="translate(50 0)"/>
      <use xlink:href="#ArialMT-65" transform="translate(133.300781 0)"/>
      <use xlink:href="#ArialMT-20" transform="translate(188.916016 0)"/>
      <use xlink:href="#ArialMT-28" transform="translate(216.699219 0)"/>
      <use xlink:href="#ArialMT-6d" transform="translate(250 0)"/>
      <use xlink:href="#ArialMT-69" transform="translate(333.300781 0)"/>
      <use xlink:href="#ArialMT-6e" transform="translate(355.517578 0)"/>
      <use xlink:href="#ArialMT-29" transform="translate(411.132812 0)"/>
     </g>
    </g>
   </g>
   <g id="matplotlib.axis_2">
    <g id="ytick_1">
     <g id="line2d_9">
      <defs>
       <path id="mbce28f6662" d="M 0 0 
L -3.5 0 
" style="stroke: #000000; stroke-width: 0.8"/>
      </defs>
      <g>
       <use xlink:href="#mbce28f6662" x="41.94149" y="272.552387" style="stroke: #000000; stroke-width: 0.8"/>
      </g>
     </g>
     <g id="text_10">
      <!-- 0.0 -->
      <g transform="translate(18.26149 276.847074) scale(0.12 -0.12)">
       <defs>
        <path id="ArialMT-2e" d="M 581 0 
L 581 641 
L 1222 641 
L 1222 0 
L 581 0 
z
" transform="scale(0.015625)"/>
       </defs>
       <use xlink:href="#ArialMT-30"/>
       <use xlink:href="#ArialMT-2e" transform="translate(55.615234 0)"/>
       <use xlink:href="#ArialMT-30" transform="translate(83.398438 0)"/>
      </g>
     </g>
    </g>
    <g id="ytick_2">
     <g id="line2d_10">
      <g>
       <use xlink:href="#mbce28f6662" x="41.94149" y="215.624631" style="stroke: #000000; stroke-width: 0.8"/>
      </g>
     </g>
     <g id="text_11">
      <!-- 0.5 -->
      <g transform="translate(18.26149 219.919319) scale(0.12 -0.12)">
       <use xlink:href="#ArialMT-30"/>
       <use xlink:href="#ArialMT-2e" transform="translate(55.615234 0)"/>
       <use xlink:href="#ArialMT-35" transform="translate(83.398438 0)"/>
      </g>
     </g>
    </g>
    <g id="ytick_3">
     <g id="line2d_11">
      <g>
       <use xlink:href="#mbce28f6662" x="41.94149" y="158.696876" style="stroke: #000000; stroke-width: 0.8"/>
      </g>
     </g>
     <g id="text_12">
      <!-- 1.0 -->
      <g transform="translate(18.26149 162.991563) scale(0.12 -0.12)">
       <use xlink:href="#ArialMT-31"/>
       <use xlink:href="#ArialMT-2e" transform="translate(55.615234 0)"/>
       <use xlink:href="#ArialMT-30" transform="translate(83.398438 0)"/>
      </g>
     </g>
    </g>
    <g id="ytick_4">
     <g id="line2d_12">
      <g>
       <use xlink:href="#mbce28f6662" x="41.94149" y="101.76912" style="stroke: #000000; stroke-width: 0.8"/>
      </g>
     </g>
     <g id="text_13">
      <!-- 1.5 -->
      <g transform="translate(18.26149 106.063808) scale(0.12 -0.12)">
       <use xlink:href="#ArialMT-31"/>
       <use xlink:href="#ArialMT-2e" transform="translate(55.615234 0)"/>
       <use xlink:href="#ArialMT-35" transform="translate(83.398438 0)"/>
      </g>
     </g>
    </g>
    <g id="ytick_5">
     <g id="line2d_13">
      <g>
       <use xlink:href="#mbce28f6662" x="41.94149" y="44.841365" style="stroke: #000000; stroke-width: 0.8"/>
      </g>
     </g>
     <g id="text_14">
      <!-- 2.0 -->
      <g transform="translate(18.26149 49.136052) scale(0.12 -0.12)">
       <use xlink:href="#ArialMT-32"/>
       <use xlink:href="#ArialMT-2e" transform="translate(55.615234 0)"/>
       <use xlink:href="#ArialMT-30" transform="translate(83.398438 0)"/>
      </g>
     </g>
    </g>
    <g id="text_15">
     <!-- Intensity (AU) -->
     <g transform="translate(11.735865 180.659287) rotate(-90) scale(0.12 -0.12)">
      <defs>
       <path id="ArialMT-49" d="M 597 0 
L 597 4581 
L 1203 4581 
L 1203 0 
L 597 0 
z
" transform="scale(0.015625)"/>
       <path id="ArialMT-73" d="M 197 991 
L 753 1078 
Q 800 744 1014 566 
Q 1228 388 1613 388 
Q 2000 388 2187 545 
Q 2375 703 2375 916 
Q 2375 1106 2209 1216 
Q 2094 1291 1634 1406 
Q 1016 1563 777 1677 
Q 538 1791 414 1992 
Q 291 2194 291 2438 
Q 291 2659 392 2848 
Q 494 3038 669 3163 
Q 800 3259 1026 3326 
Q 1253 3394 1513 3394 
Q 1903 3394 2198 3281 
Q 2494 3169 2634 2976 
Q 2775 2784 2828 2463 
L 2278 2388 
Q 2241 2644 2061 2787 
Q 1881 2931 1553 2931 
Q 1166 2931 1000 2803 
Q 834 2675 834 2503 
Q 834 2394 903 2306 
Q 972 2216 1119 2156 
Q 1203 2125 1616 2013 
Q 2213 1853 2448 1751 
Q 2684 1650 2818 1456 
Q 2953 1263 2953 975 
Q 2953 694 2789 445 
Q 2625 197 2315 61 
Q 2006 -75 1616 -75 
Q 969 -75 630 194 
Q 291 463 197 991 
z
" transform="scale(0.015625)"/>
       <path id="ArialMT-79" d="M 397 -1278 
L 334 -750 
Q 519 -800 656 -800 
Q 844 -800 956 -737 
Q 1069 -675 1141 -563 
Q 1194 -478 1313 -144 
Q 1328 -97 1363 -6 
L 103 3319 
L 709 3319 
L 1400 1397 
Q 1534 1031 1641 628 
Q 1738 1016 1872 1384 
L 2581 3319 
L 3144 3319 
L 1881 -56 
Q 1678 -603 1566 -809 
Q 1416 -1088 1222 -1217 
Q 1028 -1347 759 -1347 
Q 597 -1347 397 -1278 
z
" transform="scale(0.015625)"/>
       <path id="ArialMT-41" d="M -9 0 
L 1750 4581 
L 2403 4581 
L 4278 0 
L 3588 0 
L 3053 1388 
L 1138 1388 
L 634 0 
L -9 0 
z
M 1313 1881 
L 2866 1881 
L 2388 3150 
Q 2169 3728 2063 4100 
Q 1975 3659 1816 3225 
L 1313 1881 
z
" transform="scale(0.015625)"/>
       <path id="ArialMT-55" d="M 3500 4581 
L 4106 4581 
L 4106 1934 
Q 4106 1244 3950 837 
Q 3794 431 3386 176 
Q 2978 -78 2316 -78 
Q 1672 -78 1262 144 
Q 853 366 678 786 
Q 503 1206 503 1934 
L 503 4581 
L 1109 4581 
L 1109 1938 
Q 1109 1341 1220 1058 
Q 1331 775 1601 622 
Q 1872 469 2263 469 
Q 2931 469 3215 772 
Q 3500 1075 3500 1938 
L 3500 4581 
z
" transform="scale(0.015625)"/>
      </defs>
      <use xlink:href="#ArialMT-49"/>
      <use xlink:href="#ArialMT-6e" transform="translate(27.783203 0)"/>
      <use xlink:href="#ArialMT-74" transform="translate(83.398438 0)"/>
      <use xlink:href="#ArialMT-65" transform="translate(111.181641 0)"/>
      <use xlink:href="#ArialMT-6e" transform="translate(166.796875 0)"/>
      <use xlink:href="#ArialMT-73" transform="translate(222.412109 0)"/>
      <use xlink:href="#ArialMT-69" transform="translate(272.412109 0)"/>
      <use xlink:href="#ArialMT-74" transform="translate(294.628906 0)"/>
      <use xlink:href="#ArialMT-79" transform="translate(322.412109 0)"/>
      <use xlink:href="#ArialMT-20" transform="translate(372.412109 0)"/>
      <use xlink:href="#ArialMT-28" transform="translate(400.195312 0)"/>
      <use xlink:href="#ArialMT-41" transform="translate(433.496094 0)"/>
      <use xlink:href="#ArialMT-55" transform="translate(500.195312 0)"/>
      <use xlink:href="#ArialMT-29" transform="translate(572.412109 0)"/>
     </g>
    </g>
   </g>
   <g id="line2d_14">
    <path d="M 41.94149 272.552387 
L 90.020328 272.44131 
L 91.028304 272.153027 
L 92.564267 271.681643 
L 93.716239 271.352703 
L 94.244226 270.803145 
L 95.140205 269.89755 
L 95.492196 269.84718 
L 95.892186 270.041076 
L 98.21213 271.509527 
L 99.028111 271.669187 
L 101.172059 271.817063 
L 101.460052 271.645835 
L 101.652047 271.208915 
L 101.860042 270.074231 
L 102.548026 265.166694 
L 102.596024 265.200919 
L 102.740021 265.623448 
L 103.62 268.955896 
L 104.083988 269.652077 
L 104.531978 269.951927 
L 104.963967 269.975222 
L 105.475955 269.753238 
L 105.955943 269.328135 
L 106.275935 268.735119 
L 106.627927 267.522535 
L 107.171914 265.654428 
L 107.299911 265.678588 
L 107.459907 266.080646 
L 107.7479 267.591053 
L 108.499882 271.638309 
L 108.883872 272.638701 
L 109.123867 272.787715 
L 109.347861 272.650929 
L 110.467834 271.665327 
L 111.331813 271.386404 
L 112.467786 271.33748 
L 115.555711 271.175737 
L 116.115698 271.040761 
L 116.41969 271.240475 
L 117.779657 272.493763 
L 118.435642 272.571355 
L 120.035603 272.463045 
L 122.62754 272.334183 
L 130.739344 272.131463 
L 130.995338 271.791149 
L 131.619323 270.814633 
L 131.795319 270.992737 
L 132.675298 272.194585 
L 133.251284 272.380852 
L 134.979242 272.586259 
L 135.827221 272.548801 
L 137.363184 272.400014 
L 139.267138 272.34336 
L 141.411086 272.243634 
L 142.371063 272.458684 
L 142.89905 272.437279 
L 144.067022 272.291089 
L 151.18685 272.285407 
L 165.474505 272.225394 
L 168.802425 272.276276 
L 173.026322 272.394139 
L 201.921624 272.422933 
L 207.409492 272.433249 
L 221.457152 272.384348 
L 242.992632 272.258139 
L 247.872514 272.040117 
L 250.128459 271.738673 
L 252.736396 271.147956 
L 257.104291 270.04349 
L 258.992245 269.832652 
L 260.000221 269.933744 
L 261.008197 270.26594 
L 264.656108 271.713363 
L 266.22407 271.926694 
L 268.800008 272.015581 
L 273.871886 271.922811 
L 284.319633 271.514492 
L 286.271586 271.512909 
L 294.127396 271.720809 
L 305.039133 271.556276 
L 306.751091 271.266514 
L 309.055036 270.786522 
L 310.622998 270.931574 
L 311.998964 271.025266 
L 313.246934 270.828933 
L 315.214887 270.567567 
L 316.910846 270.452572 
L 318.126816 270.685601 
L 319.566782 270.872472 
L 322.11072 270.693013 
L 322.734705 270.430268 
L 323.550685 269.796822 
L 324.142671 269.458341 
L 324.542661 269.474281 
L 325.086648 269.755356 
L 325.982627 270.186151 
L 327.454591 270.477143 
L 328.270571 270.494654 
L 328.894556 270.296386 
L 329.294546 269.939232 
L 329.614539 269.335388 
L 329.918531 268.220629 
L 330.206524 266.206195 
L 330.494517 262.461806 
L 330.830509 254.788479 
L 331.726488 231.992967 
L 331.806486 231.834083 
L 331.838485 231.89086 
L 331.950482 232.585389 
L 332.174477 235.763941 
L 333.182453 252.072126 
L 333.790438 257.08384 
L 335.054407 265.35517 
L 335.518396 267.07448 
L 335.902387 267.735696 
L 336.222379 267.905978 
L 336.558371 267.827861 
L 337.534347 267.218211 
L 337.902338 266.720537 
L 338.782317 265.367706 
L 339.07031 265.351367 
L 339.406302 265.589576 
L 339.998288 266.360412 
L 340.878267 267.388812 
L 341.326256 267.659947 
L 341.614249 267.582662 
L 341.98224 267.193948 
L 342.686223 266.456506 
L 344.126188 265.440755 
L 344.622176 265.089898 
L 345.054166 265.105588 
L 345.374158 265.016393 
L 345.678151 264.648776 
L 346.254137 263.485127 
L 346.798124 262.00249 
L 347.934096 258.474939 
L 348.110092 258.498165 
L 348.318087 258.799734 
L 348.654079 259.780816 
L 350.014046 264.274317 
L 350.926024 265.856784 
L 351.582008 266.675211 
L 354.077948 268.814932 
L 354.701933 269.009306 
L 355.373916 268.975753 
L 356.285894 268.935528 
L 357.501865 269.006528 
L 358.589839 268.863092 
L 358.989829 268.486527 
L 359.997805 267.391044 
L 360.397795 267.379612 
L 360.989781 267.362511 
L 361.43777 267.053724 
L 362.029755 266.695694 
L 362.365747 266.748693 
L 362.797737 267.07958 
L 363.997708 268.098951 
L 364.829688 268.477874 
L 366.861639 268.949441 
L 367.62962 268.921751 
L 368.349603 268.700313 
L 368.797592 268.311303 
L 369.549574 267.61305 
L 369.853566 267.655438 
L 370.333555 268.012364 
L 370.95754 268.384273 
L 371.405529 268.398072 
L 371.901517 268.170646 
L 374.493454 266.642375 
L 374.941443 266.945584 
L 375.453431 267.195702 
L 375.837422 267.135574 
L 376.205413 266.847531 
L 376.509406 266.318502 
L 376.813398 265.305096 
L 377.133391 263.398802 
L 377.501382 259.706093 
L 377.96537 252.438307 
L 379.709328 222.043076 
L 380.04532 220.232819 
L 380.253315 219.974562 
L 380.397312 220.132456 
L 380.621306 220.827589 
L 381.005297 222.915552 
L 381.805278 228.842528 
L 382.669257 234.595249 
L 383.421239 239.58648 
L 384.861204 250.220846 
L 385.453189 252.834912 
L 385.821181 253.657963 
L 386.173172 253.924988 
L 386.477165 254.210356 
L 386.733159 254.83409 
L 387.117149 256.484232 
L 387.90113 259.828191 
L 388.413118 261.000618 
L 389.933081 263.486893 
L 390.877058 264.693043 
L 391.517043 265.19468 
L 392.04503 265.351424 
L 392.429021 265.253315 
L 392.717014 264.949013 
L 392.989007 264.305547 
L 393.261001 263.025937 
L 393.564993 260.358098 
L 393.948984 254.671082 
L 394.652967 244.057004 
L 394.812963 243.552431 
L 394.844963 243.573733 
L 394.95696 243.953305 
L 395.164955 245.722096 
L 396.316927 257.494711 
L 396.700918 258.683681 
L 397.052909 259.135643 
L 397.340902 259.201883 
L 397.612896 259.026262 
L 397.932888 258.502879 
L 399.148859 256.098888 
L 399.372853 256.174465 
L 399.644847 256.540728 
L 400.028837 257.512791 
L 400.780819 259.476799 
L 401.020813 259.576582 
L 401.260808 259.406197 
L 401.756796 259.031976 
L 401.948791 259.166144 
L 402.204785 259.665241 
L 402.81277 261.540669 
L 403.436755 263.082011 
L 404.188737 264.301028 
L 406.14069 266.969448 
L 406.828673 267.462704 
L 407.340661 267.583755 
L 407.756651 267.457991 
L 408.156641 267.091194 
L 408.508632 266.449595 
L 408.796625 265.424064 
L 409.084618 263.492107 
L 409.43661 259.336642 
L 410.348588 247.511302 
L 410.412586 247.451973 
L 410.460585 247.508489 
L 410.588582 248.058116 
L 410.828576 250.323055 
L 411.692555 259.324176 
L 412.108545 261.108872 
L 412.700531 262.608383 
L 414.972476 267.291488 
L 415.532463 267.860162 
L 415.900454 267.97042 
L 416.188447 267.829353 
L 416.508439 267.383837 
L 417.020427 266.189549 
L 417.596413 265.037832 
L 417.916405 264.824649 
L 418.204398 264.898576 
L 418.54039 265.243911 
L 419.740361 266.712738 
L 420.060353 266.635908 
L 420.524342 266.241388 
L 421.03633 265.546835 
L 421.372322 264.689013 
L 421.756312 263.009462 
L 422.492294 259.712696 
L 422.66829 259.623798 
L 422.812287 259.838221 
L 423.068281 260.730758 
L 424.140255 264.996571 
L 424.604243 265.768625 
L 425.132231 266.219345 
L 425.852213 266.524045 
L 426.540197 266.607831 
L 426.988186 266.440748 
L 427.484174 265.993581 
L 428.348153 265.191628 
L 428.620146 265.239584 
L 428.924139 265.545104 
L 430.572099 267.65627 
L 431.228083 267.951702 
L 431.948066 268.00189 
L 432.924042 267.900945 
L 433.45203 267.526349 
L 433.932018 267.277028 
L 434.25201 267.364982 
L 434.731999 267.791109 
L 435.51598 268.434244 
L 436.34796 268.776335 
L 439.131892 269.559968 
L 443.467788 269.83559 
L 444.491763 269.516965 
L 444.939752 269.129219 
L 445.45174 268.33593 
L 446.123723 267.359312 
L 446.427716 267.27778 
L 446.763708 267.454973 
L 447.787683 268.13263 
L 448.76366 268.302662 
L 450.235624 268.63586 
L 452.411572 269.616281 
L 453.227552 269.60871 
L 455.3555 269.342504 
L 455.963486 269.255086 
L 456.411475 268.963524 
L 456.827465 268.411735 
L 457.403451 267.206825 
L 458.059435 265.941822 
L 458.331428 265.802941 
L 458.555423 265.930391 
L 458.891415 266.435739 
L 459.771394 267.827509 
L 460.33138 268.226014 
L 460.859367 268.359999 
L 461.227358 268.239392 
L 461.531351 267.893807 
L 461.835344 267.168114 
L 462.139336 265.812448 
L 462.459329 263.230308 
L 462.763321 258.779776 
L 463.051314 250.978783 
L 463.339307 236.238501 
L 463.6433 207.628897 
L 464.04329 144.627252 
L 464.731274 35.948276 
L 465.035266 18.727968 
L 465.243261 15.854533 
L 465.275261 15.867427 
L 465.29126 15.914606 
L 465.387258 16.754887 
L 465.563254 20.834251 
L 465.803248 32.343248 
L 466.171239 62.658515 
L 466.827223 115.11535 
L 467.147215 125.266174 
L 467.403209 127.900161 
L 467.867198 130.650682 
L 468.091193 134.957021 
L 468.379186 145.429218 
L 468.891173 174.314513 
L 469.595156 210.562446 
L 470.059145 223.924891 
L 470.523134 231.408842 
L 471.227117 238.722259 
L 473.59506 260.348841 
L 474.075048 262.609556 
L 474.491038 263.617917 
L 474.939027 264.140172 
L 475.515013 264.798792 
L 475.979002 265.774659 
L 477.066976 268.193292 
L 477.594963 268.757184 
L 478.266947 269.1289 
L 478.922931 269.26843 
L 479.38692 269.149177 
L 479.898907 268.767067 
L 480.858884 268.003096 
L 481.194876 268.038084 
L 481.610866 268.336579 
L 482.330849 268.847631 
L 482.714839 268.841141 
L 483.370823 268.536669 
L 483.834812 268.456947 
L 484.298801 268.6306 
L 485.482772 269.165037 
L 486.186755 269.224766 
L 486.554746 269.046912 
L 486.906738 268.61417 
L 487.530723 267.378144 
L 487.978712 266.757426 
L 488.298704 266.66222 
L 488.938689 266.577717 
L 489.914665 266.034295 
L 490.202658 266.393851 
L 491.290632 268.036855 
L 491.530626 267.982841 
L 491.77062 267.669067 
L 492.058613 266.873388 
L 492.442604 265.052178 
L 493.514578 259.517411 
L 493.706574 259.38938 
L 493.85057 259.556794 
L 494.074565 260.224932 
L 494.522554 262.467544 
L 495.130539 265.186494 
L 495.578528 266.235296 
L 496.186514 267.048463 
L 497.354486 268.176316 
L 498.490458 269.141617 
L 499.178441 269.350349 
L 501.274391 269.695684 
L 502.394364 269.458921 
L 502.922351 269.726334 
L 503.578335 270.004027 
L 504.026324 269.948625 
L 505.786282 269.446215 
L 508.842208 269.658886 
L 510.538167 270.152017 
L 511.930133 270.016426 
L 512.394122 269.801228 
L 512.746114 269.379598 
L 513.162104 268.488918 
L 514.090081 266.3876 
L 514.346075 266.297564 
L 514.602069 266.468882 
L 515.018059 267.092913 
L 516.21803 268.986637 
L 516.938012 269.658886 
L 517.577997 269.974789 
L 518.249981 270.048943 
L 518.777968 269.917326 
L 519.09796 269.60748 
L 519.385953 268.987685 
L 519.705945 267.696017 
L 520.121935 264.935647 
L 520.809919 258.664485 
L 521.17791 253.312628 
L 521.529901 244.319146 
L 522.681874 210.477291 
L 522.745872 210.654631 
L 522.889868 212.108898 
L 523.161862 217.836971 
L 524.153838 240.794919 
L 524.841821 249.877572 
L 525.561804 256.801684 
L 526.521781 263.571259 
L 527.113766 266.520424 
L 527.577755 267.794092 
L 528.025744 268.432719 
L 528.393735 268.634084 
L 528.665729 268.560567 
L 528.921723 268.253408 
L 529.209716 267.516023 
L 529.513708 266.027054 
L 529.801701 263.374551 
L 530.089695 258.309768 
L 530.377688 248.833938 
L 530.713679 229.540131 
L 531.897651 151.883915 
L 531.92965 151.854246 
L 531.961649 151.973508 
L 532.073647 153.486531 
L 532.297641 160.619039 
L 534.041599 228.243432 
L 534.82558 249.270505 
L 535.369567 258.453477 
L 535.801556 262.486319 
L 536.105549 263.646677 
L 536.265545 263.703184 
L 536.409542 263.443661 
L 536.649536 262.456636 
L 537.529515 258.357656 
L 537.657512 258.412603 
L 537.833507 258.845629 
L 538.1535 260.399883 
L 539.129476 265.453564 
L 539.689463 267.075299 
L 540.137452 267.774577 
L 540.569441 268.039929 
L 541.113428 268.376121 
L 541.641415 269.056032 
L 542.345398 269.872057 
L 542.857386 270.138912 
L 543.257376 270.130373 
L 543.545369 269.908298 
L 543.817363 269.381796 
L 544.121355 268.249332 
L 544.665342 265.087234 
L 545.065333 263.427938 
L 545.273328 263.254468 
L 545.433324 263.426389 
L 545.737316 264.186044 
L 546.329302 265.584065 
L 546.649294 265.833568 
L 546.905288 265.774728 
L 547.273279 265.413316 
L 547.737268 265.03551 
L 547.977262 265.121357 
L 548.281255 265.53513 
L 548.921239 266.43706 
L 549.097235 266.362837 
L 549.289231 265.978928 
L 549.545224 264.892063 
L 550.025213 261.592473 
L 550.409204 259.677697 
L 550.5532 259.545442 
L 550.585199 259.566244 
L 550.729196 259.873813 
L 550.98519 261.112766 
L 552.009165 266.706464 
L 552.441154 267.744109 
L 552.745147 268.014789 
L 552.937142 267.936502 
L 553.161137 267.557785 
L 553.513129 266.408744 
L 554.105114 264.549677 
L 554.313109 264.445021 
L 554.489105 264.62095 
L 554.809097 265.354464 
L 555.769074 267.701619 
L 556.185064 268.191459 
L 556.521056 268.276395 
L 557.209039 268.335566 
L 557.59303 268.7251 
L 558.489008 269.676909 
L 559.192991 270.025854 
L 560.424961 270.35772 
L 563.864878 270.802815 
L 564.360866 270.666427 
L 564.712858 270.330713 
L 565.112848 269.594774 
L 565.84883 268.207809 
L 566.120824 268.11768 
L 566.456816 268.27142 
L 567.92878 269.360197 
L 568.600764 270.021686 
L 568.952755 270.071259 
L 569.336746 269.8706 
L 570.040729 269.475817 
L 570.392721 269.569817 
L 571.224701 270.147178 
L 572.05668 270.544055 
L 573.096655 270.799536 
L 573.608643 270.699855 
L 574.200629 270.312109 
L 574.760615 270.03651 
L 575.176605 270.087871 
L 575.880588 270.456466 
L 576.840565 270.89892 
L 577.400551 270.906241 
L 578.024536 270.670185 
L 578.920515 270.337806 
L 579.416503 270.417995 
L 580.296481 270.862293 
L 581.17646 271.184584 
L 582.00844 271.239747 
L 584.680375 271.081271 
L 585.432357 270.543429 
L 586.056342 270.242281 
L 587.448309 269.939562 
L 587.944297 270.133845 
L 590.040246 271.242149 
L 591.048222 271.336171 
L 591.784204 271.199977 
L 593.240169 270.857978 
L 593.944152 270.928864 
L 596.744084 271.546861 
L 598.200049 271.481508 
L 599.016029 271.241477 
L 599.768011 270.762453 
L 600.407995 270.438022 
L 600.823985 270.477894 
L 601.399971 270.800162 
L 602.535944 271.435066 
L 603.447922 271.655342 
L 604.727891 271.712008 
L 606.199855 271.57997 
L 608.391802 271.149676 
L 609.495776 271.25851 
L 611.543726 271.605394 
L 614.375658 271.465989 
L 615.335635 271.385402 
L 616.295611 271.583784 
L 617.927572 271.890181 
L 619.591532 271.946892 
L 621.687481 271.765122 
L 623.271443 271.713204 
L 625.495389 271.799529 
L 627.09535 271.76807 
L 629.095302 271.7361 
L 630.615265 271.473913 
L 631.751238 271.365682 
L 632.967209 271.522348 
L 636.407125 271.982529 
L 638.839067 271.989167 
L 640.199034 271.779627 
L 641.239009 271.702615 
L 642.566977 271.889532 
L 644.374933 272.058379 
L 646.870873 272.047415 
L 650.806778 272.003182 
L 652.678732 272.221295 
L 654.742682 272.202441 
L 656.310645 272.165756 
L 656.310645 272.165756 
" clip-path="url(#p45c00dd166)" style="fill: none; stroke: #0000ff; stroke-width: 1.5; stroke-linecap: square"/>
   </g>
   <g id="patch_3">
    <path d="M 41.94149 285.635835 
L 41.94149 3.00024 
" style="fill: none; stroke: #000000; stroke-width: 0.8; stroke-linejoin: miter; stroke-linecap: square"/>
   </g>
   <g id="patch_4">
    <path d="M 41.94149 272.552387 
L 656.326635 272.552387 
" style="fill: none; stroke: #000000; stroke-width: 0.8; stroke-linejoin: miter; stroke-linecap: square"/>
   </g>
   <g id="text_16">
    <!-- tr = 22.05 min -->
    <g transform="translate(473.331187 29.436687) scale(0.12 -0.12)">
     <defs>
      <path id="ArialMT-72" d="M 416 0 
L 416 3319 
L 922 3319 
L 922 2816 
Q 1116 3169 1280 3281 
Q 1444 3394 1641 3394 
Q 1925 3394 2219 3213 
L 2025 2691 
Q 1819 2813 1613 2813 
Q 1428 2813 1281 2702 
Q 1134 2591 1072 2394 
Q 978 2094 978 1738 
L 978 0 
L 416 0 
z
" transform="scale(0.015625)"/>
      <path id="ArialMT-3d" d="M 3381 2694 
L 356 2694 
L 356 3219 
L 3381 3219 
L 3381 2694 
z
M 3381 1303 
L 356 1303 
L 356 1828 
L 3381 1828 
L 3381 1303 
z
" transform="scale(0.015625)"/>
     </defs>
     <use xlink:href="#ArialMT-74"/>
     <use xlink:href="#ArialMT-72" transform="translate(27.783203 0)"/>
     <use xlink:href="#ArialMT-20" transform="translate(61.083984 0)"/>
     <use xlink:href="#ArialMT-3d" transform="translate(88.867188 0)"/>
     <use xlink:href="#ArialMT-20" transform="translate(147.265625 0)"/>
     <use xlink:href="#ArialMT-32" transform="translate(175.048828 0)"/>
     <use xlink:href="#ArialMT-32" transform="translate(230.664062 0)"/>
     <use xlink:href="#ArialMT-2e" transform="translate(286.279297 0)"/>
     <use xlink:href="#ArialMT-30" transform="translate(314.0625 0)"/>
     <use xlink:href="#ArialMT-35" transform="translate(369.677734 0)"/>
     <use xlink:href="#ArialMT-20" transform="translate(425.292969 0)"/>
     <use xlink:href="#ArialMT-6d" transform="translate(453.076172 0)"/>
     <use xlink:href="#ArialMT-69" transform="translate(536.376953 0)"/>
     <use xlink:href="#ArialMT-6e" transform="translate(558.59375 0)"/>
    </g>
   </g>
  </g>
  <g id="axes_2">
   <g id="patch_5">
    <path d="M 66.6 112.56702 
L 233.1 112.56702 
L 233.1 57.31698 
L 66.6 57.31698 
z
" style="fill: #ffffff"/>
   </g>
   <g id="matplotlib.axis_3">
    <g id="xtick_9">
     <g id="line2d_15">
      <g>
       <use xlink:href="#ma010bb0ced" x="66.6" y="112.56702" style="stroke: #000000; stroke-width: 0.8"/>
      </g>
     </g>
     <g id="text_17">
      <!-- 21.0 -->
      <g transform="translate(56.869531 126.724832) scale(0.1 -0.1)">
       <use xlink:href="#ArialMT-32"/>
       <use xlink:href="#ArialMT-31" transform="translate(55.615234 0)"/>
       <use xlink:href="#ArialMT-2e" transform="translate(111.230469 0)"/>
       <use xlink:href="#ArialMT-30" transform="translate(139.013672 0)"/>
      </g>
     </g>
    </g>
    <g id="xtick_10">
     <g id="line2d_16">
      <g>
       <use xlink:href="#ma010bb0ced" x="149.85" y="112.56702" style="stroke: #000000; stroke-width: 0.8"/>
      </g>
     </g>
     <g id="text_18">
      <!-- 22.0 -->
      <g transform="translate(140.119531 126.724832) scale(0.1 -0.1)">
       <use xlink:href="#ArialMT-32"/>
       <use xlink:href="#ArialMT-32" transform="translate(55.615234 0)"/>
       <use xlink:href="#ArialMT-2e" transform="translate(111.230469 0)"/>
       <use xlink:href="#ArialMT-30" transform="translate(139.013672 0)"/>
      </g>
     </g>
    </g>
    <g id="xtick_11">
     <g id="line2d_17">
      <g>
       <use xlink:href="#ma010bb0ced" x="233.1" y="112.56702" style="stroke: #000000; stroke-width: 0.8"/>
      </g>
     </g>
     <g id="text_19">
      <!-- 23.0 -->
      <g transform="translate(223.369531 126.724832) scale(0.1 -0.1)">
       <use xlink:href="#ArialMT-32"/>
       <use xlink:href="#ArialMT-33" transform="translate(55.615234 0)"/>
       <use xlink:href="#ArialMT-2e" transform="translate(111.230469 0)"/>
       <use xlink:href="#ArialMT-30" transform="translate(139.013672 0)"/>
      </g>
     </g>
    </g>
   </g>
   <g id="matplotlib.axis_4">
    <g id="ytick_6">
     <g id="line2d_18">
      <g>
       <use xlink:href="#mbce28f6662" x="66.6" y="104.24202" style="stroke: #000000; stroke-width: 0.8"/>
      </g>
     </g>
     <g id="text_20">
      <!-- 0.0 -->
      <g transform="translate(45.7 107.820926) scale(0.1 -0.1)">
       <use xlink:href="#ArialMT-30"/>
       <use xlink:href="#ArialMT-2e" transform="translate(55.615234 0)"/>
       <use xlink:href="#ArialMT-30" transform="translate(83.398438 0)"/>
      </g>
     </g>
    </g>
    <g id="ytick_7">
     <g id="line2d_19">
      <g>
       <use xlink:href="#mbce28f6662" x="66.6" y="62.61702" style="stroke: #000000; stroke-width: 0.8"/>
      </g>
     </g>
     <g id="text_21">
      <!-- 0.5 -->
      <g transform="translate(45.7 66.195926) scale(0.1 -0.1)">
       <use xlink:href="#ArialMT-30"/>
       <use xlink:href="#ArialMT-2e" transform="translate(55.615234 0)"/>
       <use xlink:href="#ArialMT-35" transform="translate(83.398438 0)"/>
      </g>
     </g>
    </g>
   </g>
   <g id="line2d_20">
    <path d="M 66.669374 100.472934 
L 68.056874 100.382275 
L 69.652499 100.514842 
L 74.231249 101.017073 
L 80.128124 101.179152 
L 84.984374 101.40262 
L 93.656249 102.083439 
L 97.818749 102.085395 
L 107.045624 101.89566 
L 110.028749 101.795027 
L 112.040624 101.517422 
L 113.844374 101.045569 
L 116.272499 100.143506 
L 118.284375 99.480528 
L 119.533125 99.309482 
L 120.643125 99.377597 
L 122.030625 99.706077 
L 125.915625 100.763344 
L 128.274375 101.061195 
L 130.84125 101.176172 
L 132.645 101.052021 
L 133.963125 100.751905 
L 135.00375 100.305094 
L 135.905625 99.691958 
L 136.738125 98.860598 
L 137.50125 97.785849 
L 138.195 96.445982 
L 138.88875 94.614673 
L 139.513125 92.364077 
L 140.1375 89.29335 
L 140.761875 85.065241 
L 141.38625 79.247639 
L 142.010625 71.346457 
L 142.704375 59.551413 
L 143.4675 42.464725 
L 144.43875 15.006374 
L 144.9475 -1 
M 159.937912 -1 
L 160.53375 -0.504683 
L 161.019375 0.207516 
L 161.505 1.352289 
L 162.06 3.330752 
L 162.684375 6.52452 
L 163.378125 11.290843 
L 164.28 19.124727 
L 166.153125 38.061548 
L 167.540625 50.831533 
L 168.58125 58.470928 
L 169.5525 63.99842 
L 170.454375 67.921036 
L 171.35625 70.921124 
L 172.3275 73.405087 
L 173.506875 75.775948 
L 175.38 78.944218 
L 179.473125 85.378177 
L 182.17875 89.802257 
L 184.398751 93.341614 
L 185.716876 95.019835 
L 186.896251 96.158853 
L 188.006251 96.932279 
L 189.185626 97.486007 
L 190.573126 97.875984 
L 195.706876 99.034183 
L 201.465001 101.150598 
L 203.615626 101.501413 
L 206.876251 101.777095 
L 209.790001 101.828902 
L 212.148751 101.64412 
L 218.670001 100.923983 
L 220.612501 101.138393 
L 223.942501 101.536195 
L 225.954376 101.505018 
L 231.088126 101.273666 
L 233.030626 101.434805 
L 233.030626 101.434805 
" clip-path="url(#p28c1474a3a)" style="fill: none; stroke: #0000ff; stroke-width: 1.5; stroke-linecap: square"/>
   </g>
   <g id="patch_6">
    <path d="M 66.6 112.56702 
L 66.6 57.31698 
" style="fill: none; stroke: #000000; stroke-width: 0.8; stroke-linejoin: miter; stroke-linecap: square"/>
   </g>
   <g id="patch_7">
    <path d="M 233.1 112.56702 
L 233.1 57.31698 
" style="fill: none; stroke: #000000; stroke-width: 0.8; stroke-linejoin: miter; stroke-linecap: square"/>
   </g>
   <g id="patch_8">
    <path d="M 66.6 112.56702 
L 233.1 112.56702 
" style="fill: none; stroke: #000000; stroke-width: 0.8; stroke-linejoin: miter; stroke-linecap: square"/>
   </g>
   <g id="patch_9">
    <path d="M 66.6 57.31698 
L 233.1 57.31698 
" style="fill: none; stroke: #000000; stroke-width: 0.8; stroke-linejoin: miter; stroke-linecap: square"/>
   </g>
  </g>
 </g>
 <defs>
  <clipPath id="p45c00dd166">
   <rect x="41.94149" y="3.00024" width="614.385145" height="282.635595"/>
  </clipPath>
  <clipPath id="p28c1474a3a">
   <rect x="66.6" y="57.31698" width="166.5" height="55.25004"/>
  </clipPath>
 </defs>
</svg>
