<?xml version="1.0" encoding="utf-8" standalone="no"?>
<!DOCTYPE svg PUBLIC "-//W3C//DTD SVG 1.1//EN"
  "http://www.w3.org/Graphics/SVG/1.1/DTD/svg11.dtd">
<svg xmlns:xlink="http://www.w3.org/1999/xlink" width="666.141732pt" height="308.976378pt" viewBox="0 0 666.141732 308.976378" xmlns="http://www.w3.org/2000/svg" version="1.1">
 <metadata>
  <rdf:RDF xmlns:dc="http://purl.org/dc/elements/1.1/" xmlns:cc="http://creativecommons.org/ns#" xmlns:rdf="http://www.w3.org/1999/02/22-rdf-syntax-ns#">
   <cc:Work>
    <dc:type rdf:resource="http://purl.org/dc/dcmitype/StillImage"/>
    <dc:date>2025-09-15T16:51:28.923043</dc:date>
    <dc:format>image/svg+xml</dc:format>
    <dc:creator>
     <cc:Agent>
      <dc:title>Matplotlib v3.10.6, https://matplotlib.org/</dc:title>
     </cc:Agent>
    </dc:creator>
   </cc:Work>
  </rdf:RDF>
 </metadata>
 <defs>
  <style type="text/css">*{stroke-linejoin: round; stroke-linecap: butt}</style>
 </defs>
 <g id="figure_1">
  <g id="patch_1">
   <path d="M 0 308.976378 
L 666.141732 308.976378 
L 666.141732 0 
L 0 0 
z
" style="fill: #ffffff"/>
  </g>
  <g id="axes_1">
   <g id="patch_2">
    <path d="M 44.69774 271.748638 
L 655.506492 271.748638 
L 655.506492 3.00024 
L 44.69774 3.00024 
z
" style="fill: #ffffff"/>
   </g>
   <g id="line2d_1">
    <path d="M 91.66957 259.532802 
L 95.884787 259.200082 
" clip-path="url(#p179accff91)" style="fill: none; stroke: #000000; stroke-opacity: 0.9; stroke-width: 1.2; stroke-linecap: square"/>
   </g>
   <g id="line2d_2">
    <path d="M 105.015105 259.532802 
L 106.383062 259.532802 
" clip-path="url(#p179accff91)" style="fill: none; stroke: #000000; stroke-opacity: 0.9; stroke-width: 1.2; stroke-linecap: square"/>
   </g>
   <g id="line2d_3">
    <path d="M 350.118027 259.532802 
L 352.456279 259.532802 
" clip-path="url(#p179accff91)" style="fill: none; stroke: #000000; stroke-opacity: 0.9; stroke-width: 1.2; stroke-linecap: square"/>
   </g>
   <g id="line2d_4">
    <path d="M 395.324238 259.532802 
L 396.724008 259.532802 
" clip-path="url(#p179accff91)" style="fill: none; stroke: #000000; stroke-opacity: 0.9; stroke-width: 1.2; stroke-linecap: square"/>
   </g>
   <g id="line2d_5">
    <path d="M 406.617838 259.532802 
L 408.574334 259.532802 
" clip-path="url(#p179accff91)" style="fill: none; stroke: #000000; stroke-opacity: 0.9; stroke-width: 1.2; stroke-linecap: square"/>
   </g>
   <g id="line2d_6">
    <path d="M 461.511094 259.532802 
L 466.139879 259.532802 
" clip-path="url(#p179accff91)" style="fill: none; stroke: #000000; stroke-opacity: 0.9; stroke-width: 1.2; stroke-linecap: square"/>
   </g>
   <g id="line2d_7">
    <path d="M 499.352605 259.532802 
L 501.913548 259.532802 
" clip-path="url(#p179accff91)" style="fill: none; stroke: #000000; stroke-opacity: 0.9; stroke-width: 1.2; stroke-linecap: square"/>
   </g>
   <g id="FillBetweenPolyCollection_1">
    <defs>
     <path id="m0434bd5929" d="M 91.782455 -49.452487 
L 91.796822 -49.535639 
L 91.812728 -49.651443 
L 91.828635 -49.777365 
L 91.844541 -49.913856 
L 91.860448 -50.061349 
L 91.876354 -50.220248 
L 91.892261 -50.390892 
L 91.908167 -50.573515 
L 91.924074 -50.768365 
L 91.93998 -50.97555 
L 91.955887 -51.195116 
L 91.971793 -51.427064 
L 91.9877 -51.671269 
L 92.003606 -51.927561 
L 92.019513 -52.195692 
L 92.035419 -52.475337 
L 92.051325 -52.766078 
L 92.067232 -53.067433 
L 92.083138 -53.378892 
L 92.099045 -53.699804 
L 92.114951 -54.029501 
L 92.130858 -54.367242 
L 92.146764 -54.712219 
L 92.162671 -55.06355 
L 92.178577 -55.42032 
L 92.194484 -55.781568 
L 92.21039 -56.146241 
L 92.226297 -56.513269 
L 92.242203 -56.881507 
L 92.25811 -57.249821 
L 92.274016 -57.616958 
L 92.289923 -57.981693 
L 92.305829 -58.342724 
L 92.321736 -58.69875 
L 92.337642 -59.048438 
L 92.353549 -59.39044 
L 92.369455 -59.723439 
L 92.385362 -60.046116 
L 92.401268 -60.357203 
L 92.417174 -60.655507 
L 92.433081 -60.939893 
L 92.448987 -61.209326 
L 92.464894 -61.462845 
L 92.4808 -61.699596 
L 92.496707 -61.918837 
L 92.512613 -62.119901 
L 92.52852 -62.302214 
L 92.544426 -62.465359 
L 92.560333 -62.60893 
L 92.576239 -62.732715 
L 92.592146 -62.836509 
L 92.608052 -62.920251 
L 92.623959 -62.983956 
L 92.639865 -63.027732 
L 92.655772 -63.051766 
L 92.671678 -63.056338 
L 92.687585 -63.041771 
L 92.703491 -63.008517 
L 92.719398 -62.957069 
L 92.735304 -62.887987 
L 92.751211 -62.801906 
L 92.767117 -62.699538 
L 92.783023 -62.581611 
L 92.79893 -62.448963 
L 92.814836 -62.302462 
L 92.830743 -62.143021 
L 92.846649 -61.971602 
L 92.862556 -61.789195 
L 92.878462 -61.596841 
L 92.894369 -61.395591 
L 92.910275 -61.186485 
L 92.926182 -60.970576 
L 92.942088 -60.748886 
L 92.957995 -60.522394 
L 92.973901 -60.292073 
L 92.989808 -60.05884 
L 93.005714 -59.82356 
L 93.021621 -59.587025 
L 93.037527 -59.350025 
L 93.053434 -59.113274 
L 93.06934 -58.877437 
L 93.085247 -58.643103 
L 93.101153 -58.410861 
L 93.11706 -58.181222 
L 93.132966 -57.954636 
L 93.148872 -57.731522 
L 93.164779 -57.512249 
L 93.180685 -57.297131 
L 93.196592 -57.086475 
L 93.212498 -56.880484 
L 93.228405 -56.679389 
L 93.244311 -56.483331 
L 93.260218 -56.292432 
L 93.276124 -56.106787 
L 93.292031 -55.926442 
L 93.307937 -55.751428 
L 93.323844 -55.581728 
L 93.33975 -55.417313 
L 93.355657 -55.258105 
L 93.371563 -55.104026 
L 93.38747 -54.954968 
L 93.403376 -54.810806 
L 93.419283 -54.671371 
L 93.435189 -54.536523 
L 93.451096 -54.406075 
L 93.467002 -54.279874 
L 93.482909 -54.157748 
L 93.498815 -54.039512 
L 93.514721 -53.924979 
L 93.530628 -53.814011 
L 93.546534 -53.70642 
L 93.562441 -53.602069 
L 93.578347 -53.500786 
L 93.594254 -53.402431 
L 93.61016 -53.306865 
L 93.626067 -53.21395 
L 93.641973 -53.123545 
L 93.65788 -53.035558 
L 93.673786 -52.949863 
L 93.689693 -52.866354 
L 93.705599 -52.784921 
L 93.721506 -52.705488 
L 93.737412 -52.62796 
L 93.753319 -52.55223 
L 93.769225 -52.478266 
L 93.785132 -52.405976 
L 93.801038 -52.335282 
L 93.816945 -52.266154 
L 93.832851 -52.198513 
L 93.848758 -52.132313 
L 93.864664 -52.067492 
L 93.88057 -52.004035 
L 93.896477 -51.941895 
L 93.912383 -51.881026 
L 93.92829 -51.821396 
L 93.944196 -51.762991 
L 93.960103 -51.705748 
L 93.976009 -51.649682 
L 93.991916 -51.594733 
L 94.007822 -51.540914 
L 94.023729 -51.488181 
L 94.039635 -51.436516 
L 94.055542 -51.385921 
L 94.071448 -51.33638 
L 94.087355 -51.287861 
L 94.103261 -51.240365 
L 94.119168 -51.193876 
L 94.135074 -51.148395 
L 94.150981 -51.103905 
L 94.166887 -51.060407 
L 94.182794 -51.01787 
L 94.1987 -50.976309 
L 94.214607 -50.935693 
L 94.230513 -50.896054 
L 94.246419 -50.857344 
L 94.262326 -50.81958 
L 94.278232 -50.782745 
L 94.294139 -50.746841 
L 94.310045 -50.71185 
L 94.325952 -50.677774 
L 94.341858 -50.644612 
L 94.357765 -50.612333 
L 94.373671 -50.580938 
L 94.389578 -50.550426 
L 94.405484 -50.520797 
L 94.421391 -50.492021 
L 94.437297 -50.464112 
L 94.453204 -50.437025 
L 94.46911 -50.410774 
L 94.485017 -50.38536 
L 94.500923 -50.360752 
L 94.51683 -50.336934 
L 94.532736 -50.313907 
L 94.548643 -50.29167 
L 94.564549 -50.270177 
L 94.580456 -50.249443 
L 94.596362 -50.229452 
L 94.612268 -50.210175 
L 94.628175 -50.191611 
L 94.644081 -50.173743 
L 94.659988 -50.156543 
L 94.675894 -50.140024 
L 94.691801 -50.12414 
L 94.707707 -50.108907 
L 94.723614 -50.094279 
L 94.73952 -50.080255 
L 94.755427 -50.066819 
L 94.771333 -50.053942 
L 94.78724 -50.041638 
L 94.803146 -50.029845 
L 94.819053 -50.018595 
L 94.834959 -50.007841 
L 94.850866 -49.997567 
L 94.866772 -49.987773 
L 94.882679 -49.978429 
L 94.898585 -49.969534 
L 94.914492 -49.961042 
L 94.930398 -49.952969 
L 94.946305 -49.945282 
L 94.962211 -49.937984 
L 94.978117 -49.931026 
L 94.994024 -49.924409 
L 95.00993 -49.918133 
L 95.025837 -49.912167 
L 95.041743 -49.906495 
L 95.05765 -49.901103 
L 95.073556 -49.895989 
L 95.089463 -49.891139 
L 95.105369 -49.886521 
L 95.121276 -49.88212 
L 95.137182 -49.877951 
L 95.153089 -49.873969 
L 95.168995 -49.870188 
L 95.184902 -49.866562 
L 95.200808 -49.863121 
L 95.216715 -49.859836 
L 95.232621 -49.856675 
L 95.248528 -49.853669 
L 95.264434 -49.850755 
L 95.280341 -49.847966 
L 95.296247 -49.845285 
L 95.312154 -49.842682 
L 95.32806 -49.840171 
L 95.343966 -49.837723 
L 95.359873 -49.835352 
L 95.375779 -49.833028 
L 95.391686 -49.83075 
L 95.407592 -49.828518 
L 95.423499 -49.826333 
L 95.439405 -49.824164 
L 95.455312 -49.82201 
L 95.471218 -49.819887 
L 95.487125 -49.817779 
L 95.503031 -49.815687 
L 95.518938 -49.813595 
L 95.534844 -49.811503 
L 95.550751 -49.809411 
L 95.566657 -49.807335 
L 95.582564 -49.805258 
L 95.59847 -49.803197 
L 95.614377 -49.801152 
L 95.630283 -49.799106 
L 95.64619 -49.797076 
L 95.662096 -49.795093 
L 95.678003 -49.793125 
L 95.693909 -49.791203 
L 95.709815 -49.789328 
L 95.725722 -49.787531 
L 95.741628 -49.785795 
L 95.757535 -49.784153 
L 95.773441 -49.782618 
L 95.789348 -49.781193 
L 95.805254 -49.779907 
L 95.821161 -49.778791 
L 95.837067 -49.777846 
L 95.852974 -49.777102 
L 95.86888 -49.776559 
L 95.884787 -49.776296 
L 95.884787 -49.776296 
L 95.884787 -49.776296 
L 95.86888 -49.77504 
L 95.852974 -49.773785 
L 95.837067 -49.772529 
L 95.821161 -49.771274 
L 95.805254 -49.770018 
L 95.789348 -49.768763 
L 95.773441 -49.767507 
L 95.757535 -49.766252 
L 95.741628 -49.764996 
L 95.725722 -49.76374 
L 95.709815 -49.762485 
L 95.693909 -49.761229 
L 95.678003 -49.759974 
L 95.662096 -49.758718 
L 95.64619 -49.757463 
L 95.630283 -49.756207 
L 95.614377 -49.754952 
L 95.59847 -49.753696 
L 95.582564 -49.752441 
L 95.566657 -49.751185 
L 95.550751 -49.749929 
L 95.534844 -49.748674 
L 95.518938 -49.747418 
L 95.503031 -49.746163 
L 95.487125 -49.744907 
L 95.471218 -49.743652 
L 95.455312 -49.742396 
L 95.439405 -49.741141 
L 95.423499 -49.739885 
L 95.407592 -49.73863 
L 95.391686 -49.737374 
L 95.375779 -49.736118 
L 95.359873 -49.734863 
L 95.343966 -49.733607 
L 95.32806 -49.732352 
L 95.312154 -49.731096 
L 95.296247 -49.729841 
L 95.280341 -49.728585 
L 95.264434 -49.72733 
L 95.248528 -49.726074 
L 95.232621 -49.724819 
L 95.216715 -49.723563 
L 95.200808 -49.722307 
L 95.184902 -49.721052 
L 95.168995 -49.719796 
L 95.153089 -49.718541 
L 95.137182 -49.717285 
L 95.121276 -49.71603 
L 95.105369 -49.714774 
L 95.089463 -49.713519 
L 95.073556 -49.712263 
L 95.05765 -49.711008 
L 95.041743 -49.709752 
L 95.025837 -49.708496 
L 95.00993 -49.707241 
L 94.994024 -49.705985 
L 94.978117 -49.70473 
L 94.962211 -49.703474 
L 94.946305 -49.702219 
L 94.930398 -49.700963 
L 94.914492 -49.699708 
L 94.898585 -49.698452 
L 94.882679 -49.697197 
L 94.866772 -49.695941 
L 94.850866 -49.694685 
L 94.834959 -49.69343 
L 94.819053 -49.692174 
L 94.803146 -49.690919 
L 94.78724 -49.689663 
L 94.771333 -49.688408 
L 94.755427 -49.687152 
L 94.73952 -49.685897 
L 94.723614 -49.684641 
L 94.707707 -49.683386 
L 94.691801 -49.68213 
L 94.675894 -49.680874 
L 94.659988 -49.679619 
L 94.644081 -49.678363 
L 94.628175 -49.677108 
L 94.612268 -49.675852 
L 94.596362 -49.674597 
L 94.580456 -49.673341 
L 94.564549 -49.672086 
L 94.548643 -49.67083 
L 94.532736 -49.669575 
L 94.51683 -49.668319 
L 94.500923 -49.667063 
L 94.485017 -49.665808 
L 94.46911 -49.664552 
L 94.453204 -49.663297 
L 94.437297 -49.662041 
L 94.421391 -49.660786 
L 94.405484 -49.65953 
L 94.389578 -49.658275 
L 94.373671 -49.657019 
L 94.357765 -49.655764 
L 94.341858 -49.654508 
L 94.325952 -49.653252 
L 94.310045 -49.651997 
L 94.294139 -49.650741 
L 94.278232 -49.649486 
L 94.262326 -49.64823 
L 94.246419 -49.646975 
L 94.230513 -49.645719 
L 94.214607 -49.644464 
L 94.1987 -49.643208 
L 94.182794 -49.641953 
L 94.166887 -49.640697 
L 94.150981 -49.639441 
L 94.135074 -49.638186 
L 94.119168 -49.63693 
L 94.103261 -49.635675 
L 94.087355 -49.634419 
L 94.071448 -49.633164 
L 94.055542 -49.631908 
L 94.039635 -49.630653 
L 94.023729 -49.629397 
L 94.007822 -49.628142 
L 93.991916 -49.626886 
L 93.976009 -49.62563 
L 93.960103 -49.624375 
L 93.944196 -49.623119 
L 93.92829 -49.621864 
L 93.912383 -49.620608 
L 93.896477 -49.619353 
L 93.88057 -49.618097 
L 93.864664 -49.616842 
L 93.848758 -49.615586 
L 93.832851 -49.614331 
L 93.816945 -49.613075 
L 93.801038 -49.611819 
L 93.785132 -49.610564 
L 93.769225 -49.609308 
L 93.753319 -49.608053 
L 93.737412 -49.606797 
L 93.721506 -49.605542 
L 93.705599 -49.604286 
L 93.689693 -49.603031 
L 93.673786 -49.601775 
L 93.65788 -49.60052 
L 93.641973 -49.599264 
L 93.626067 -49.598008 
L 93.61016 -49.596753 
L 93.594254 -49.595497 
L 93.578347 -49.594242 
L 93.562441 -49.592986 
L 93.546534 -49.591731 
L 93.530628 -49.590475 
L 93.514721 -49.58922 
L 93.498815 -49.587964 
L 93.482909 -49.586709 
L 93.467002 -49.585453 
L 93.451096 -49.584197 
L 93.435189 -49.582942 
L 93.419283 -49.581686 
L 93.403376 -49.580431 
L 93.38747 -49.579175 
L 93.371563 -49.57792 
L 93.355657 -49.576664 
L 93.33975 -49.575409 
L 93.323844 -49.574153 
L 93.307937 -49.572898 
L 93.292031 -49.571642 
L 93.276124 -49.570386 
L 93.260218 -49.569131 
L 93.244311 -49.567875 
L 93.228405 -49.56662 
L 93.212498 -49.565364 
L 93.196592 -49.564109 
L 93.180685 -49.562853 
L 93.164779 -49.561598 
L 93.148872 -49.560342 
L 93.132966 -49.559087 
L 93.11706 -49.557831 
L 93.101153 -49.556575 
L 93.085247 -49.55532 
L 93.06934 -49.554064 
L 93.053434 -49.552809 
L 93.037527 -49.551553 
L 93.021621 -49.550298 
L 93.005714 -49.549042 
L 92.989808 -49.547787 
L 92.973901 -49.546531 
L 92.957995 -49.545275 
L 92.942088 -49.54402 
L 92.926182 -49.542764 
L 92.910275 -49.541509 
L 92.894369 -49.540253 
L 92.878462 -49.538998 
L 92.862556 -49.537742 
L 92.846649 -49.536487 
L 92.830743 -49.535231 
L 92.814836 -49.533976 
L 92.79893 -49.53272 
L 92.783023 -49.531464 
L 92.767117 -49.530209 
L 92.751211 -49.528953 
L 92.735304 -49.527698 
L 92.719398 -49.526442 
L 92.703491 -49.525187 
L 92.687585 -49.523931 
L 92.671678 -49.522676 
L 92.655772 -49.52142 
L 92.639865 -49.520165 
L 92.623959 -49.518909 
L 92.608052 -49.517653 
L 92.592146 -49.516398 
L 92.576239 -49.515142 
L 92.560333 -49.513887 
L 92.544426 -49.512631 
L 92.52852 -49.511376 
L 92.512613 -49.51012 
L 92.496707 -49.508865 
L 92.4808 -49.507609 
L 92.464894 -49.506354 
L 92.448987 -49.505098 
L 92.433081 -49.503842 
L 92.417174 -49.502587 
L 92.401268 -49.501331 
L 92.385362 -49.500076 
L 92.369455 -49.49882 
L 92.353549 -49.497565 
L 92.337642 -49.496309 
L 92.321736 -49.495054 
L 92.305829 -49.493798 
L 92.289923 -49.492543 
L 92.274016 -49.491287 
L 92.25811 -49.490031 
L 92.242203 -49.488776 
L 92.226297 -49.48752 
L 92.21039 -49.486265 
L 92.194484 -49.485009 
L 92.178577 -49.483754 
L 92.162671 -49.482498 
L 92.146764 -49.481243 
L 92.130858 -49.479987 
L 92.114951 -49.478732 
L 92.099045 -49.477476 
L 92.083138 -49.47622 
L 92.067232 -49.474965 
L 92.051325 -49.473709 
L 92.035419 -49.472454 
L 92.019513 -49.471198 
L 92.003606 -49.469943 
L 91.9877 -49.468687 
L 91.971793 -49.467432 
L 91.955887 -49.466176 
L 91.93998 -49.464921 
L 91.924074 -49.463665 
L 91.908167 -49.462409 
L 91.892261 -49.461154 
L 91.876354 -49.459898 
L 91.860448 -49.458643 
L 91.844541 -49.457387 
L 91.828635 -49.456132 
L 91.812728 -49.454876 
L 91.796822 -49.453621 
z
"/>
    </defs>
    <g clip-path="url(#p179accff91)">
     <use xlink:href="#m0434bd5929" x="0" y="308.976378" style="fill: #9ecae1; fill-opacity: 0.5"/>
    </g>
   </g>
   <g id="FillBetweenPolyCollection_2">
    <defs>
     <path id="mf76bdc00bc" d="M 105.126451 -49.443576 
L 105.142357 -49.449558 
L 105.158263 -49.467115 
L 105.17417 -49.484641 
L 105.190076 -49.502121 
L 105.205983 -49.519523 
L 105.221889 -49.536833 
L 105.237796 -49.554018 
L 105.253702 -49.571064 
L 105.269609 -49.587908 
L 105.285515 -49.604551 
L 105.301422 -49.620946 
L 105.317328 -49.637062 
L 105.333235 -49.652884 
L 105.349141 -49.668365 
L 105.365048 -49.683474 
L 105.380954 -49.698179 
L 105.396861 -49.712436 
L 105.412767 -49.726243 
L 105.428674 -49.739554 
L 105.44458 -49.752323 
L 105.460487 -49.764534 
L 105.476393 -49.776157 
L 105.4923 -49.787159 
L 105.508206 -49.797495 
L 105.524112 -49.807164 
L 105.540019 -49.816137 
L 105.555925 -49.824365 
L 105.571832 -49.83185 
L 105.587738 -49.83856 
L 105.603645 -49.844464 
L 105.619551 -49.849562 
L 105.635458 -49.853824 
L 105.651364 -49.857233 
L 105.667271 -49.859774 
L 105.683177 -49.861463 
L 105.699084 -49.862269 
L 105.71499 -49.862192 
L 105.730897 -49.861231 
L 105.746803 -49.859387 
L 105.76271 -49.856644 
L 105.778616 -49.853033 
L 105.794523 -49.848539 
L 105.810429 -49.843193 
L 105.826336 -49.836979 
L 105.842242 -49.829928 
L 105.858149 -49.822072 
L 105.874055 -49.813394 
L 105.889961 -49.803926 
L 105.905868 -49.793698 
L 105.921774 -49.782742 
L 105.937681 -49.771058 
L 105.953587 -49.758692 
L 105.969494 -49.74566 
L 105.9854 -49.732008 
L 106.001307 -49.717767 
L 106.017213 -49.702952 
L 106.03312 -49.687611 
L 106.049026 -49.671774 
L 106.064933 -49.655487 
L 106.080839 -49.638767 
L 106.096746 -49.621659 
L 106.112652 -49.60421 
L 106.128559 -49.586436 
L 106.144465 -49.568398 
L 106.160372 -49.550128 
L 106.176278 -49.531641 
L 106.192185 -49.512999 
L 106.208091 -49.494218 
L 106.223998 -49.475328 
L 106.239904 -49.456392 
L 106.25581 -49.443576 
L 106.239904 -49.443576 
L 106.223998 -49.443576 
L 106.208091 -49.443576 
L 106.192185 -49.443576 
L 106.176278 -49.443576 
L 106.160372 -49.443576 
L 106.144465 -49.443576 
L 106.128559 -49.443576 
L 106.112652 -49.443576 
L 106.096746 -49.443576 
L 106.080839 -49.443576 
L 106.064933 -49.443576 
L 106.049026 -49.443576 
L 106.03312 -49.443576 
L 106.017213 -49.443576 
L 106.001307 -49.443576 
L 105.9854 -49.443576 
L 105.969494 -49.443576 
L 105.953587 -49.443576 
L 105.937681 -49.443576 
L 105.921774 -49.443576 
L 105.905868 -49.443576 
L 105.889961 -49.443576 
L 105.874055 -49.443576 
L 105.858149 -49.443576 
L 105.842242 -49.443576 
L 105.826336 -49.443576 
L 105.810429 -49.443576 
L 105.794523 -49.443576 
L 105.778616 -49.443576 
L 105.76271 -49.443576 
L 105.746803 -49.443576 
L 105.730897 -49.443576 
L 105.71499 -49.443576 
L 105.699084 -49.443576 
L 105.683177 -49.443576 
L 105.667271 -49.443576 
L 105.651364 -49.443576 
L 105.635458 -49.443576 
L 105.619551 -49.443576 
L 105.603645 -49.443576 
L 105.587738 -49.443576 
L 105.571832 -49.443576 
L 105.555925 -49.443576 
L 105.540019 -49.443576 
L 105.524112 -49.443576 
L 105.508206 -49.443576 
L 105.4923 -49.443576 
L 105.476393 -49.443576 
L 105.460487 -49.443576 
L 105.44458 -49.443576 
L 105.428674 -49.443576 
L 105.412767 -49.443576 
L 105.396861 -49.443576 
L 105.380954 -49.443576 
L 105.365048 -49.443576 
L 105.349141 -49.443576 
L 105.333235 -49.443576 
L 105.317328 -49.443576 
L 105.301422 -49.443576 
L 105.285515 -49.443576 
L 105.269609 -49.443576 
L 105.253702 -49.443576 
L 105.237796 -49.443576 
L 105.221889 -49.443576 
L 105.205983 -49.443576 
L 105.190076 -49.443576 
L 105.17417 -49.443576 
L 105.158263 -49.443576 
L 105.142357 -49.443576 
z
"/>
    </defs>
    <g clip-path="url(#p179accff91)">
     <use xlink:href="#mf76bdc00bc" x="0" y="308.976378" style="fill: #9ecae1; fill-opacity: 0.5"/>
    </g>
   </g>
   <g id="FillBetweenPolyCollection_3">
    <defs>
     <path id="mb8c338a064" d="M 350.229373 -49.443576 
L 350.245279 -49.444924 
L 350.261185 -49.44807 
L 350.277092 -49.4512 
L 350.292998 -49.454331 
L 350.308905 -49.457445 
L 350.324811 -49.46056 
L 350.340718 -49.463644 
L 350.356624 -49.466728 
L 350.372531 -49.46978 
L 350.388437 -49.472818 
L 350.404344 -49.475824 
L 350.42025 -49.478815 
L 350.436157 -49.481759 
L 350.452063 -49.484688 
L 350.46797 -49.48757 
L 350.483876 -49.490421 
L 350.499783 -49.493226 
L 350.515689 -49.496 
L 350.531596 -49.498727 
L 350.547502 -49.501424 
L 350.563409 -49.504058 
L 350.579315 -49.506646 
L 350.595222 -49.509203 
L 350.611128 -49.511682 
L 350.627034 -49.514131 
L 350.642941 -49.516517 
L 350.658847 -49.518841 
L 350.674754 -49.521104 
L 350.69066 -49.52332 
L 350.706567 -49.525474 
L 350.722473 -49.527566 
L 350.73838 -49.529596 
L 350.754286 -49.531564 
L 350.770193 -49.533454 
L 350.786099 -49.535298 
L 350.802006 -49.537065 
L 350.817912 -49.538785 
L 350.833819 -49.540412 
L 350.849725 -49.541993 
L 350.865632 -49.543496 
L 350.881538 -49.544937 
L 350.897445 -49.546316 
L 350.913351 -49.547618 
L 350.929258 -49.548858 
L 350.945164 -49.550035 
L 350.961071 -49.551136 
L 350.976977 -49.552174 
L 350.992883 -49.553135 
L 351.00879 -49.554033 
L 351.024696 -49.554855 
L 351.040603 -49.555614 
L 351.056509 -49.556311 
L 351.072416 -49.556931 
L 351.088322 -49.557474 
L 351.104229 -49.557954 
L 351.120135 -49.558372 
L 351.136042 -49.558713 
L 351.151948 -49.558992 
L 351.167855 -49.559194 
L 351.183761 -49.559333 
L 351.199668 -49.559411 
L 351.215574 -49.559411 
L 351.231481 -49.559333 
L 351.247387 -49.559209 
L 351.263294 -49.559008 
L 351.2792 -49.558729 
L 351.295107 -49.558388 
L 351.311013 -49.557985 
L 351.32692 -49.557505 
L 351.342826 -49.556962 
L 351.358732 -49.556358 
L 351.374639 -49.555692 
L 351.390545 -49.554948 
L 351.406452 -49.554142 
L 351.422358 -49.553259 
L 351.438265 -49.552329 
L 351.454171 -49.551322 
L 351.470078 -49.550252 
L 351.485984 -49.549137 
L 351.501891 -49.547943 
L 351.517797 -49.546688 
L 351.533704 -49.545387 
L 351.54961 -49.544007 
L 351.565517 -49.542582 
L 351.581423 -49.54111 
L 351.59733 -49.53956 
L 351.613236 -49.537979 
L 351.629143 -49.536337 
L 351.645049 -49.534632 
L 351.660956 -49.532897 
L 351.676862 -49.531099 
L 351.692769 -49.52927 
L 351.708675 -49.52738 
L 351.724581 -49.525458 
L 351.740488 -49.523506 
L 351.756394 -49.521491 
L 351.772301 -49.519461 
L 351.788207 -49.5174 
L 351.804114 -49.515293 
L 351.82002 -49.51317 
L 351.835927 -49.511016 
L 351.851833 -49.508846 
L 351.86774 -49.506646 
L 351.883646 -49.50443 
L 351.899553 -49.502199 
L 351.915459 -49.499952 
L 351.931366 -49.497689 
L 351.947272 -49.495411 
L 351.963179 -49.493133 
L 351.979085 -49.490855 
L 351.994992 -49.488562 
L 352.010898 -49.486268 
L 352.026805 -49.483975 
L 352.042711 -49.481682 
L 352.058618 -49.479404 
L 352.074524 -49.47711 
L 352.09043 -49.474832 
L 352.106337 -49.47257 
L 352.122243 -49.470292 
L 352.13815 -49.468045 
L 352.154056 -49.465798 
L 352.169963 -49.463566 
L 352.185869 -49.46135 
L 352.201776 -49.459134 
L 352.217682 -49.456934 
L 352.233589 -49.454765 
L 352.249495 -49.452595 
L 352.265402 -49.450457 
L 352.281308 -49.448318 
L 352.297215 -49.446195 
L 352.313121 -49.444103 
L 352.329028 -49.443576 
L 352.313121 -49.443576 
L 352.297215 -49.443576 
L 352.281308 -49.443576 
L 352.265402 -49.443576 
L 352.249495 -49.443576 
L 352.233589 -49.443576 
L 352.217682 -49.443576 
L 352.201776 -49.443576 
L 352.185869 -49.443576 
L 352.169963 -49.443576 
L 352.154056 -49.443576 
L 352.13815 -49.443576 
L 352.122243 -49.443576 
L 352.106337 -49.443576 
L 352.09043 -49.443576 
L 352.074524 -49.443576 
L 352.058618 -49.443576 
L 352.042711 -49.443576 
L 352.026805 -49.443576 
L 352.010898 -49.443576 
L 351.994992 -49.443576 
L 351.979085 -49.443576 
L 351.963179 -49.443576 
L 351.947272 -49.443576 
L 351.931366 -49.443576 
L 351.915459 -49.443576 
L 351.899553 -49.443576 
L 351.883646 -49.443576 
L 351.86774 -49.443576 
L 351.851833 -49.443576 
L 351.835927 -49.443576 
L 351.82002 -49.443576 
L 351.804114 -49.443576 
L 351.788207 -49.443576 
L 351.772301 -49.443576 
L 351.756394 -49.443576 
L 351.740488 -49.443576 
L 351.724581 -49.443576 
L 351.708675 -49.443576 
L 351.692769 -49.443576 
L 351.676862 -49.443576 
L 351.660956 -49.443576 
L 351.645049 -49.443576 
L 351.629143 -49.443576 
L 351.613236 -49.443576 
L 351.59733 -49.443576 
L 351.581423 -49.443576 
L 351.565517 -49.443576 
L 351.54961 -49.443576 
L 351.533704 -49.443576 
L 351.517797 -49.443576 
L 351.501891 -49.443576 
L 351.485984 -49.443576 
L 351.470078 -49.443576 
L 351.454171 -49.443576 
L 351.438265 -49.443576 
L 351.422358 -49.443576 
L 351.406452 -49.443576 
L 351.390545 -49.443576 
L 351.374639 -49.443576 
L 351.358732 -49.443576 
L 351.342826 -49.443576 
L 351.32692 -49.443576 
L 351.311013 -49.443576 
L 351.295107 -49.443576 
L 351.2792 -49.443576 
L 351.263294 -49.443576 
L 351.247387 -49.443576 
L 351.231481 -49.443576 
L 351.215574 -49.443576 
L 351.199668 -49.443576 
L 351.183761 -49.443576 
L 351.167855 -49.443576 
L 351.151948 -49.443576 
L 351.136042 -49.443576 
L 351.120135 -49.443576 
L 351.104229 -49.443576 
L 351.088322 -49.443576 
L 351.072416 -49.443576 
L 351.056509 -49.443576 
L 351.040603 -49.443576 
L 351.024696 -49.443576 
L 351.00879 -49.443576 
L 350.992883 -49.443576 
L 350.976977 -49.443576 
L 350.961071 -49.443576 
L 350.945164 -49.443576 
L 350.929258 -49.443576 
L 350.913351 -49.443576 
L 350.897445 -49.443576 
L 350.881538 -49.443576 
L 350.865632 -49.443576 
L 350.849725 -49.443576 
L 350.833819 -49.443576 
L 350.817912 -49.443576 
L 350.802006 -49.443576 
L 350.786099 -49.443576 
L 350.770193 -49.443576 
L 350.754286 -49.443576 
L 350.73838 -49.443576 
L 350.722473 -49.443576 
L 350.706567 -49.443576 
L 350.69066 -49.443576 
L 350.674754 -49.443576 
L 350.658847 -49.443576 
L 350.642941 -49.443576 
L 350.627034 -49.443576 
L 350.611128 -49.443576 
L 350.595222 -49.443576 
L 350.579315 -49.443576 
L 350.563409 -49.443576 
L 350.547502 -49.443576 
L 350.531596 -49.443576 
L 350.515689 -49.443576 
L 350.499783 -49.443576 
L 350.483876 -49.443576 
L 350.46797 -49.443576 
L 350.452063 -49.443576 
L 350.436157 -49.443576 
L 350.42025 -49.443576 
L 350.404344 -49.443576 
L 350.388437 -49.443576 
L 350.372531 -49.443576 
L 350.356624 -49.443576 
L 350.340718 -49.443576 
L 350.324811 -49.443576 
L 350.308905 -49.443576 
L 350.292998 -49.443576 
L 350.277092 -49.443576 
L 350.261185 -49.443576 
L 350.245279 -49.443576 
z
"/>
    </defs>
    <g clip-path="url(#p179accff91)">
     <use xlink:href="#mb8c338a064" x="0" y="308.976378" style="fill: #9ecae1; fill-opacity: 0.5"/>
    </g>
   </g>
   <g id="FillBetweenPolyCollection_4">
    <defs>
     <path id="mea05dfa531" d="M 395.435583 -49.443576 
L 395.45149 -49.444367 
L 395.467396 -49.446025 
L 395.483303 -49.447667 
L 395.499209 -49.449294 
L 395.515116 -49.450906 
L 395.531022 -49.452502 
L 395.546929 -49.454067 
L 395.562835 -49.455601 
L 395.578742 -49.45712 
L 395.594648 -49.458592 
L 395.610555 -49.460049 
L 395.626461 -49.461459 
L 395.642368 -49.462838 
L 395.658274 -49.464186 
L 395.674181 -49.465488 
L 395.690087 -49.466743 
L 395.705994 -49.467967 
L 395.7219 -49.469145 
L 395.737807 -49.470261 
L 395.753713 -49.471346 
L 395.769619 -49.472353 
L 395.785526 -49.473329 
L 395.801432 -49.474243 
L 395.817339 -49.475096 
L 395.833245 -49.475886 
L 395.849152 -49.47663 
L 395.865058 -49.477296 
L 395.880965 -49.4779 
L 395.896871 -49.478458 
L 395.912778 -49.478939 
L 395.928684 -49.479357 
L 395.944591 -49.479713 
L 395.960497 -49.479992 
L 395.976404 -49.480209 
L 395.99231 -49.480349 
L 396.008217 -49.480442 
L 396.024123 -49.480457 
L 396.04003 -49.480395 
L 396.055936 -49.480271 
L 396.071843 -49.480085 
L 396.087749 -49.479837 
L 396.103656 -49.479512 
L 396.119562 -49.47914 
L 396.135468 -49.478691 
L 396.151375 -49.478195 
L 396.167281 -49.477622 
L 396.183188 -49.477002 
L 396.199094 -49.47632 
L 396.215001 -49.475591 
L 396.230907 -49.474786 
L 396.246814 -49.473933 
L 396.26272 -49.473035 
L 396.278627 -49.472074 
L 396.294533 -49.471082 
L 396.31044 -49.470013 
L 396.326346 -49.468913 
L 396.342253 -49.467766 
L 396.358159 -49.466557 
L 396.374066 -49.465317 
L 396.389972 -49.464016 
L 396.405879 -49.462683 
L 396.421785 -49.461304 
L 396.437692 -49.459878 
L 396.453598 -49.458406 
L 396.469505 -49.456903 
L 396.485411 -49.455369 
L 396.501317 -49.453773 
L 396.517224 -49.452161 
L 396.53313 -49.450503 
L 396.549037 -49.448799 
L 396.564943 -49.447078 
L 396.58085 -49.445312 
L 396.596756 -49.443576 
L 396.58085 -49.443576 
L 396.564943 -49.443576 
L 396.549037 -49.443576 
L 396.53313 -49.443576 
L 396.517224 -49.443576 
L 396.501317 -49.443576 
L 396.485411 -49.443576 
L 396.469505 -49.443576 
L 396.453598 -49.443576 
L 396.437692 -49.443576 
L 396.421785 -49.443576 
L 396.405879 -49.443576 
L 396.389972 -49.443576 
L 396.374066 -49.443576 
L 396.358159 -49.443576 
L 396.342253 -49.443576 
L 396.326346 -49.443576 
L 396.31044 -49.443576 
L 396.294533 -49.443576 
L 396.278627 -49.443576 
L 396.26272 -49.443576 
L 396.246814 -49.443576 
L 396.230907 -49.443576 
L 396.215001 -49.443576 
L 396.199094 -49.443576 
L 396.183188 -49.443576 
L 396.167281 -49.443576 
L 396.151375 -49.443576 
L 396.135468 -49.443576 
L 396.119562 -49.443576 
L 396.103656 -49.443576 
L 396.087749 -49.443576 
L 396.071843 -49.443576 
L 396.055936 -49.443576 
L 396.04003 -49.443576 
L 396.024123 -49.443576 
L 396.008217 -49.443576 
L 395.99231 -49.443576 
L 395.976404 -49.443576 
L 395.960497 -49.443576 
L 395.944591 -49.443576 
L 395.928684 -49.443576 
L 395.912778 -49.443576 
L 395.896871 -49.443576 
L 395.880965 -49.443576 
L 395.865058 -49.443576 
L 395.849152 -49.443576 
L 395.833245 -49.443576 
L 395.817339 -49.443576 
L 395.801432 -49.443576 
L 395.785526 -49.443576 
L 395.769619 -49.443576 
L 395.753713 -49.443576 
L 395.737807 -49.443576 
L 395.7219 -49.443576 
L 395.705994 -49.443576 
L 395.690087 -49.443576 
L 395.674181 -49.443576 
L 395.658274 -49.443576 
L 395.642368 -49.443576 
L 395.626461 -49.443576 
L 395.610555 -49.443576 
L 395.594648 -49.443576 
L 395.578742 -49.443576 
L 395.562835 -49.443576 
L 395.546929 -49.443576 
L 395.531022 -49.443576 
L 395.515116 -49.443576 
L 395.499209 -49.443576 
L 395.483303 -49.443576 
L 395.467396 -49.443576 
L 395.45149 -49.443576 
z
"/>
    </defs>
    <g clip-path="url(#p179accff91)">
     <use xlink:href="#mea05dfa531" x="0" y="308.976378" style="fill: #9ecae1; fill-opacity: 0.5"/>
    </g>
   </g>
   <g id="FillBetweenPolyCollection_5">
    <defs>
     <path id="m45699e6db3" d="M 406.729183 -49.443576 
L 406.745089 -49.444893 
L 406.760996 -49.447326 
L 406.776902 -49.449744 
L 406.792809 -49.452115 
L 406.808715 -49.45447 
L 406.824622 -49.45681 
L 406.840528 -49.459119 
L 406.856435 -49.461397 
L 406.872341 -49.463644 
L 406.888248 -49.46586 
L 406.904154 -49.468045 
L 406.920061 -49.470199 
L 406.935967 -49.472306 
L 406.951874 -49.474383 
L 406.96778 -49.476428 
L 406.983687 -49.478443 
L 406.999593 -49.480411 
L 407.0155 -49.482332 
L 407.031406 -49.484223 
L 407.047313 -49.486082 
L 407.063219 -49.487896 
L 407.079125 -49.489647 
L 407.095032 -49.491382 
L 407.110938 -49.493056 
L 407.126845 -49.494698 
L 407.142751 -49.496279 
L 407.158658 -49.497813 
L 407.174564 -49.499316 
L 407.190471 -49.500742 
L 407.206377 -49.502137 
L 407.222284 -49.503485 
L 407.23819 -49.504771 
L 407.254097 -49.506011 
L 407.270003 -49.507204 
L 407.28591 -49.508335 
L 407.301816 -49.50942 
L 407.317723 -49.510443 
L 407.333629 -49.511419 
L 407.349536 -49.512333 
L 407.365442 -49.513201 
L 407.381349 -49.514007 
L 407.397255 -49.514766 
L 407.413162 -49.515448 
L 407.429068 -49.516099 
L 407.444974 -49.516672 
L 407.460881 -49.517183 
L 407.476787 -49.517648 
L 407.492694 -49.518051 
L 407.5086 -49.518392 
L 407.524507 -49.518671 
L 407.540413 -49.518872 
L 407.55632 -49.519027 
L 407.572226 -49.51912 
L 407.588133 -49.519136 
L 407.604039 -49.519089 
L 407.619946 -49.518981 
L 407.635852 -49.51881 
L 407.651759 -49.518578 
L 407.667665 -49.518284 
L 407.683572 -49.517912 
L 407.699478 -49.517478 
L 407.715385 -49.516982 
L 407.731291 -49.516424 
L 407.747198 -49.515804 
L 407.763104 -49.515122 
L 407.779011 -49.514363 
L 407.794917 -49.513542 
L 407.810823 -49.512658 
L 407.82673 -49.511713 
L 407.842636 -49.510706 
L 407.858543 -49.509621 
L 407.874449 -49.50849 
L 407.890356 -49.507297 
L 407.906262 -49.506042 
L 407.922169 -49.504724 
L 407.938075 -49.503361 
L 407.953982 -49.501935 
L 407.969888 -49.500447 
L 407.985795 -49.498929 
L 408.001701 -49.497348 
L 408.017608 -49.495721 
L 408.033514 -49.494048 
L 408.049421 -49.492327 
L 408.065327 -49.490561 
L 408.081234 -49.488763 
L 408.09714 -49.486935 
L 408.113047 -49.485075 
L 408.128953 -49.483169 
L 408.14486 -49.481248 
L 408.160766 -49.479295 
L 408.176672 -49.477312 
L 408.192579 -49.475313 
L 408.208485 -49.473298 
L 408.224392 -49.471268 
L 408.240298 -49.469207 
L 408.256205 -49.467146 
L 408.272111 -49.46507 
L 408.288018 -49.462993 
L 408.303924 -49.460917 
L 408.319831 -49.458825 
L 408.335737 -49.456748 
L 408.351644 -49.454672 
L 408.36755 -49.452595 
L 408.383457 -49.450519 
L 408.399363 -49.448458 
L 408.41527 -49.446412 
L 408.431176 -49.444382 
L 408.447083 -49.443576 
L 408.431176 -49.443576 
L 408.41527 -49.443576 
L 408.399363 -49.443576 
L 408.383457 -49.443576 
L 408.36755 -49.443576 
L 408.351644 -49.443576 
L 408.335737 -49.443576 
L 408.319831 -49.443576 
L 408.303924 -49.443576 
L 408.288018 -49.443576 
L 408.272111 -49.443576 
L 408.256205 -49.443576 
L 408.240298 -49.443576 
L 408.224392 -49.443576 
L 408.208485 -49.443576 
L 408.192579 -49.443576 
L 408.176672 -49.443576 
L 408.160766 -49.443576 
L 408.14486 -49.443576 
L 408.128953 -49.443576 
L 408.113047 -49.443576 
L 408.09714 -49.443576 
L 408.081234 -49.443576 
L 408.065327 -49.443576 
L 408.049421 -49.443576 
L 408.033514 -49.443576 
L 408.017608 -49.443576 
L 408.001701 -49.443576 
L 407.985795 -49.443576 
L 407.969888 -49.443576 
L 407.953982 -49.443576 
L 407.938075 -49.443576 
L 407.922169 -49.443576 
L 407.906262 -49.443576 
L 407.890356 -49.443576 
L 407.874449 -49.443576 
L 407.858543 -49.443576 
L 407.842636 -49.443576 
L 407.82673 -49.443576 
L 407.810823 -49.443576 
L 407.794917 -49.443576 
L 407.779011 -49.443576 
L 407.763104 -49.443576 
L 407.747198 -49.443576 
L 407.731291 -49.443576 
L 407.715385 -49.443576 
L 407.699478 -49.443576 
L 407.683572 -49.443576 
L 407.667665 -49.443576 
L 407.651759 -49.443576 
L 407.635852 -49.443576 
L 407.619946 -49.443576 
L 407.604039 -49.443576 
L 407.588133 -49.443576 
L 407.572226 -49.443576 
L 407.55632 -49.443576 
L 407.540413 -49.443576 
L 407.524507 -49.443576 
L 407.5086 -49.443576 
L 407.492694 -49.443576 
L 407.476787 -49.443576 
L 407.460881 -49.443576 
L 407.444974 -49.443576 
L 407.429068 -49.443576 
L 407.413162 -49.443576 
L 407.397255 -49.443576 
L 407.381349 -49.443576 
L 407.365442 -49.443576 
L 407.349536 -49.443576 
L 407.333629 -49.443576 
L 407.317723 -49.443576 
L 407.301816 -49.443576 
L 407.28591 -49.443576 
L 407.270003 -49.443576 
L 407.254097 -49.443576 
L 407.23819 -49.443576 
L 407.222284 -49.443576 
L 407.206377 -49.443576 
L 407.190471 -49.443576 
L 407.174564 -49.443576 
L 407.158658 -49.443576 
L 407.142751 -49.443576 
L 407.126845 -49.443576 
L 407.110938 -49.443576 
L 407.095032 -49.443576 
L 407.079125 -49.443576 
L 407.063219 -49.443576 
L 407.047313 -49.443576 
L 407.031406 -49.443576 
L 407.0155 -49.443576 
L 406.999593 -49.443576 
L 406.983687 -49.443576 
L 406.96778 -49.443576 
L 406.951874 -49.443576 
L 406.935967 -49.443576 
L 406.920061 -49.443576 
L 406.904154 -49.443576 
L 406.888248 -49.443576 
L 406.872341 -49.443576 
L 406.856435 -49.443576 
L 406.840528 -49.443576 
L 406.824622 -49.443576 
L 406.808715 -49.443576 
L 406.792809 -49.443576 
L 406.776902 -49.443576 
L 406.760996 -49.443576 
L 406.745089 -49.443576 
z
"/>
    </defs>
    <g clip-path="url(#p179accff91)">
     <use xlink:href="#m45699e6db3" x="0" y="308.976378" style="fill: #9ecae1; fill-opacity: 0.5"/>
    </g>
   </g>
   <g id="FillBetweenPolyCollection_6">
    <defs>
     <path id="m628d776b89" d="M 461.622439 -49.443576 
L 461.638346 -49.446242 
L 461.654252 -49.461041 
L 461.670159 -49.476537 
L 461.686065 -49.492761 
L 461.701971 -49.509714 
L 461.717878 -49.527442 
L 461.733784 -49.545975 
L 461.749691 -49.565346 
L 461.765597 -49.585568 
L 461.781504 -49.60669 
L 461.79741 -49.628725 
L 461.813317 -49.651706 
L 461.829223 -49.675679 
L 461.84513 -49.700643 
L 461.861036 -49.726677 
L 461.876943 -49.753764 
L 461.892849 -49.781968 
L 461.908756 -49.811317 
L 461.924662 -49.84183 
L 461.940569 -49.873535 
L 461.956475 -49.90648 
L 461.972382 -49.940696 
L 461.988288 -49.976213 
L 462.004195 -50.013047 
L 462.020101 -50.051246 
L 462.036008 -50.090823 
L 462.051914 -50.131811 
L 462.06782 -50.174255 
L 462.083727 -50.218171 
L 462.099633 -50.263575 
L 462.11554 -50.310513 
L 462.131446 -50.358985 
L 462.147353 -50.409038 
L 462.163259 -50.460703 
L 462.179166 -50.513979 
L 462.195072 -50.568882 
L 462.210979 -50.625459 
L 462.226885 -50.683694 
L 462.242792 -50.743633 
L 462.258698 -50.805277 
L 462.274605 -50.868626 
L 462.290511 -50.93371 
L 462.306418 -51.00053 
L 462.322324 -51.069085 
L 462.338231 -51.139391 
L 462.354137 -51.211449 
L 462.370044 -51.285257 
L 462.38595 -51.360802 
L 462.401857 -51.438081 
L 462.417763 -51.517097 
L 462.433669 -51.597817 
L 462.449576 -51.680272 
L 462.465482 -51.764401 
L 462.481389 -51.850188 
L 462.497295 -51.937634 
L 462.513202 -52.026706 
L 462.529108 -52.117374 
L 462.545015 -52.209608 
L 462.560921 -52.30336 
L 462.576828 -52.398616 
L 462.592734 -52.495312 
L 462.608641 -52.593419 
L 462.624547 -52.692889 
L 462.640454 -52.793677 
L 462.65636 -52.895719 
L 462.672267 -52.998971 
L 462.688173 -53.103354 
L 462.70408 -53.208821 
L 462.719986 -53.315311 
L 462.735893 -53.422746 
L 462.751799 -53.531065 
L 462.767706 -53.64019 
L 462.783612 -53.750027 
L 462.799518 -53.86053 
L 462.815425 -53.971592 
L 462.831331 -54.083134 
L 462.847238 -54.195079 
L 462.863144 -54.307333 
L 462.879051 -54.419805 
L 462.894957 -54.532417 
L 462.910864 -54.645043 
L 462.92677 -54.757608 
L 462.942677 -54.870017 
L 462.958583 -54.982164 
L 462.97449 -55.093938 
L 462.990396 -55.205263 
L 463.006303 -55.316014 
L 463.022209 -55.426116 
L 463.038116 -55.535441 
L 463.054022 -55.643884 
L 463.069929 -55.75135 
L 463.085835 -55.857748 
L 463.101742 -55.962952 
L 463.117648 -56.066869 
L 463.133555 -56.169392 
L 463.149461 -56.270428 
L 463.165367 -56.369867 
L 463.181274 -56.467617 
L 463.19718 -56.563555 
L 463.213087 -56.657617 
L 463.228993 -56.74968 
L 463.2449 -56.839667 
L 463.260806 -56.927469 
L 463.276713 -57.013008 
L 463.292619 -57.096207 
L 463.308526 -57.176958 
L 463.324432 -57.255183 
L 463.340339 -57.330804 
L 463.356245 -57.403745 
L 463.372152 -57.473927 
L 463.388058 -57.541274 
L 463.403965 -57.605738 
L 463.419871 -57.667243 
L 463.435778 -57.725726 
L 463.451684 -57.781109 
L 463.467591 -57.833378 
L 463.483497 -57.882455 
L 463.499404 -57.928308 
L 463.51531 -57.970876 
L 463.531216 -58.010144 
L 463.547123 -58.046049 
L 463.563029 -58.078575 
L 463.578936 -58.107693 
L 463.594842 -58.133385 
L 463.610749 -58.155623 
L 463.626655 -58.174404 
L 463.642562 -58.189699 
L 463.658468 -58.201522 
L 463.674375 -58.209859 
L 463.690281 -58.214725 
L 463.706188 -58.216104 
L 463.722094 -58.214028 
L 463.738001 -58.208511 
L 463.753907 -58.199554 
L 463.769814 -58.187188 
L 463.78572 -58.171429 
L 463.801627 -58.152322 
L 463.817533 -58.129898 
L 463.83344 -58.104175 
L 463.849346 -58.075213 
L 463.865253 -58.043058 
L 463.881159 -58.007742 
L 463.897065 -57.969311 
L 463.912972 -57.927828 
L 463.928878 -57.883354 
L 463.944785 -57.83592 
L 463.960691 -57.785619 
L 463.976598 -57.732498 
L 463.992504 -57.676634 
L 464.008411 -57.618089 
L 464.024317 -57.55691 
L 464.040224 -57.493205 
L 464.05613 -57.427036 
L 464.072037 -57.358465 
L 464.087943 -57.287585 
L 464.10385 -57.214474 
L 464.119756 -57.139209 
L 464.135663 -57.061852 
L 464.151569 -56.982511 
L 464.167476 -56.901264 
L 464.183382 -56.818189 
L 464.199289 -56.733362 
L 464.215195 -56.646893 
L 464.231101 -56.558844 
L 464.247008 -56.469306 
L 464.262914 -56.378359 
L 464.278821 -56.28611 
L 464.294727 -56.192621 
L 464.310634 -56.097986 
L 464.32654 -56.002296 
L 464.342447 -55.905631 
L 464.358353 -55.808066 
L 464.37426 -55.709696 
L 464.390166 -55.610614 
L 464.406073 -55.51088 
L 464.421979 -55.410573 
L 464.437886 -55.309801 
L 464.453792 -55.208625 
L 464.469699 -55.10711 
L 464.485605 -55.005362 
L 464.501512 -54.903443 
L 464.517418 -54.801416 
L 464.533325 -54.699373 
L 464.549231 -54.597377 
L 464.565138 -54.495489 
L 464.581044 -54.393787 
L 464.59695 -54.292348 
L 464.612857 -54.19122 
L 464.628763 -54.090464 
L 464.64467 -53.990157 
L 464.660576 -53.890345 
L 464.676483 -53.791092 
L 464.692389 -53.692458 
L 464.708296 -53.594491 
L 464.724202 -53.497237 
L 464.740109 -53.400757 
L 464.756015 -53.305099 
L 464.771922 -53.210308 
L 464.787828 -53.116417 
L 464.803735 -53.023486 
L 464.819641 -52.931531 
L 464.835548 -52.840599 
L 464.851454 -52.750737 
L 464.867361 -52.661959 
L 464.883267 -52.574327 
L 464.899174 -52.487843 
L 464.91508 -52.402536 
L 464.930987 -52.318438 
L 464.946893 -52.23558 
L 464.962799 -52.153977 
L 464.978706 -52.073644 
L 464.994612 -51.994613 
L 465.010519 -51.916869 
L 465.026425 -51.840472 
L 465.042332 -51.765393 
L 465.058238 -51.691646 
L 465.074145 -51.619279 
L 465.090051 -51.548244 
L 465.105958 -51.478589 
L 465.121864 -51.410312 
L 465.137771 -51.343384 
L 465.153677 -51.277835 
L 465.169584 -51.213665 
L 465.18549 -51.150859 
L 465.201397 -51.089416 
L 465.217303 -51.029337 
L 465.23321 -50.970606 
L 465.249116 -50.913239 
L 465.265023 -50.857205 
L 465.280929 -50.802503 
L 465.296836 -50.749119 
L 465.312742 -50.697051 
L 465.328648 -50.646286 
L 465.344555 -50.596791 
L 465.360461 -50.548582 
L 465.376368 -50.501628 
L 465.392274 -50.45593 
L 465.408181 -50.41144 
L 465.424087 -50.368175 
L 465.439994 -50.326102 
L 465.4559 -50.285192 
L 465.471807 -50.245445 
L 465.487713 -50.206843 
L 465.50362 -50.169373 
L 465.519526 -50.132988 
L 465.535433 -50.097688 
L 465.551339 -50.063457 
L 465.567246 -50.030248 
L 465.583152 -49.998078 
L 465.599059 -49.9669 
L 465.614965 -49.936713 
L 465.630872 -49.907472 
L 465.646778 -49.879175 
L 465.662685 -49.851794 
L 465.678591 -49.825311 
L 465.694497 -49.799695 
L 465.710404 -49.774932 
L 465.72631 -49.751006 
L 465.742217 -49.727886 
L 465.758123 -49.705556 
L 465.77403 -49.683985 
L 465.789936 -49.663173 
L 465.805843 -49.643075 
L 465.821749 -49.623689 
L 465.837656 -49.60497 
L 465.853562 -49.586932 
L 465.869469 -49.56953 
L 465.885375 -49.552763 
L 465.901282 -49.536585 
L 465.917188 -49.520995 
L 465.933095 -49.50598 
L 465.949001 -49.491522 
L 465.964908 -49.477575 
L 465.980814 -49.464155 
L 465.996721 -49.451231 
L 466.012627 -49.443576 
L 465.996721 -49.443576 
L 465.980814 -49.443576 
L 465.964908 -49.443576 
L 465.949001 -49.443576 
L 465.933095 -49.443576 
L 465.917188 -49.443576 
L 465.901282 -49.443576 
L 465.885375 -49.443576 
L 465.869469 -49.443576 
L 465.853562 -49.443576 
L 465.837656 -49.443576 
L 465.821749 -49.443576 
L 465.805843 -49.443576 
L 465.789936 -49.443576 
L 465.77403 -49.443576 
L 465.758123 -49.443576 
L 465.742217 -49.443576 
L 465.72631 -49.443576 
L 465.710404 -49.443576 
L 465.694497 -49.443576 
L 465.678591 -49.443576 
L 465.662685 -49.443576 
L 465.646778 -49.443576 
L 465.630872 -49.443576 
L 465.614965 -49.443576 
L 465.599059 -49.443576 
L 465.583152 -49.443576 
L 465.567246 -49.443576 
L 465.551339 -49.443576 
L 465.535433 -49.443576 
L 465.519526 -49.443576 
L 465.50362 -49.443576 
L 465.487713 -49.443576 
L 465.471807 -49.443576 
L 465.4559 -49.443576 
L 465.439994 -49.443576 
L 465.424087 -49.443576 
L 465.408181 -49.443576 
L 465.392274 -49.443576 
L 465.376368 -49.443576 
L 465.360461 -49.443576 
L 465.344555 -49.443576 
L 465.328648 -49.443576 
L 465.312742 -49.443576 
L 465.296836 -49.443576 
L 465.280929 -49.443576 
L 465.265023 -49.443576 
L 465.249116 -49.443576 
L 465.23321 -49.443576 
L 465.217303 -49.443576 
L 465.201397 -49.443576 
L 465.18549 -49.443576 
L 465.169584 -49.443576 
L 465.153677 -49.443576 
L 465.137771 -49.443576 
L 465.121864 -49.443576 
L 465.105958 -49.443576 
L 465.090051 -49.443576 
L 465.074145 -49.443576 
L 465.058238 -49.443576 
L 465.042332 -49.443576 
L 465.026425 -49.443576 
L 465.010519 -49.443576 
L 464.994612 -49.443576 
L 464.978706 -49.443576 
L 464.962799 -49.443576 
L 464.946893 -49.443576 
L 464.930987 -49.443576 
L 464.91508 -49.443576 
L 464.899174 -49.443576 
L 464.883267 -49.443576 
L 464.867361 -49.443576 
L 464.851454 -49.443576 
L 464.835548 -49.443576 
L 464.819641 -49.443576 
L 464.803735 -49.443576 
L 464.787828 -49.443576 
L 464.771922 -49.443576 
L 464.756015 -49.443576 
L 464.740109 -49.443576 
L 464.724202 -49.443576 
L 464.708296 -49.443576 
L 464.692389 -49.443576 
L 464.676483 -49.443576 
L 464.660576 -49.443576 
L 464.64467 -49.443576 
L 464.628763 -49.443576 
L 464.612857 -49.443576 
L 464.59695 -49.443576 
L 464.581044 -49.443576 
L 464.565138 -49.443576 
L 464.549231 -49.443576 
L 464.533325 -49.443576 
L 464.517418 -49.443576 
L 464.501512 -49.443576 
L 464.485605 -49.443576 
L 464.469699 -49.443576 
L 464.453792 -49.443576 
L 464.437886 -49.443576 
L 464.421979 -49.443576 
L 464.406073 -49.443576 
L 464.390166 -49.443576 
L 464.37426 -49.443576 
L 464.358353 -49.443576 
L 464.342447 -49.443576 
L 464.32654 -49.443576 
L 464.310634 -49.443576 
L 464.294727 -49.443576 
L 464.278821 -49.443576 
L 464.262914 -49.443576 
L 464.247008 -49.443576 
L 464.231101 -49.443576 
L 464.215195 -49.443576 
L 464.199289 -49.443576 
L 464.183382 -49.443576 
L 464.167476 -49.443576 
L 464.151569 -49.443576 
L 464.135663 -49.443576 
L 464.119756 -49.443576 
L 464.10385 -49.443576 
L 464.087943 -49.443576 
L 464.072037 -49.443576 
L 464.05613 -49.443576 
L 464.040224 -49.443576 
L 464.024317 -49.443576 
L 464.008411 -49.443576 
L 463.992504 -49.443576 
L 463.976598 -49.443576 
L 463.960691 -49.443576 
L 463.944785 -49.443576 
L 463.928878 -49.443576 
L 463.912972 -49.443576 
L 463.897065 -49.443576 
L 463.881159 -49.443576 
L 463.865253 -49.443576 
L 463.849346 -49.443576 
L 463.83344 -49.443576 
L 463.817533 -49.443576 
L 463.801627 -49.443576 
L 463.78572 -49.443576 
L 463.769814 -49.443576 
L 463.753907 -49.443576 
L 463.738001 -49.443576 
L 463.722094 -49.443576 
L 463.706188 -49.443576 
L 463.690281 -49.443576 
L 463.674375 -49.443576 
L 463.658468 -49.443576 
L 463.642562 -49.443576 
L 463.626655 -49.443576 
L 463.610749 -49.443576 
L 463.594842 -49.443576 
L 463.578936 -49.443576 
L 463.563029 -49.443576 
L 463.547123 -49.443576 
L 463.531216 -49.443576 
L 463.51531 -49.443576 
L 463.499404 -49.443576 
L 463.483497 -49.443576 
L 463.467591 -49.443576 
L 463.451684 -49.443576 
L 463.435778 -49.443576 
L 463.419871 -49.443576 
L 463.403965 -49.443576 
L 463.388058 -49.443576 
L 463.372152 -49.443576 
L 463.356245 -49.443576 
L 463.340339 -49.443576 
L 463.324432 -49.443576 
L 463.308526 -49.443576 
L 463.292619 -49.443576 
L 463.276713 -49.443576 
L 463.260806 -49.443576 
L 463.2449 -49.443576 
L 463.228993 -49.443576 
L 463.213087 -49.443576 
L 463.19718 -49.443576 
L 463.181274 -49.443576 
L 463.165367 -49.443576 
L 463.149461 -49.443576 
L 463.133555 -49.443576 
L 463.117648 -49.443576 
L 463.101742 -49.443576 
L 463.085835 -49.443576 
L 463.069929 -49.443576 
L 463.054022 -49.443576 
L 463.038116 -49.443576 
L 463.022209 -49.443576 
L 463.006303 -49.443576 
L 462.990396 -49.443576 
L 462.97449 -49.443576 
L 462.958583 -49.443576 
L 462.942677 -49.443576 
L 462.92677 -49.443576 
L 462.910864 -49.443576 
L 462.894957 -49.443576 
L 462.879051 -49.443576 
L 462.863144 -49.443576 
L 462.847238 -49.443576 
L 462.831331 -49.443576 
L 462.815425 -49.443576 
L 462.799518 -49.443576 
L 462.783612 -49.443576 
L 462.767706 -49.443576 
L 462.751799 -49.443576 
L 462.735893 -49.443576 
L 462.719986 -49.443576 
L 462.70408 -49.443576 
L 462.688173 -49.443576 
L 462.672267 -49.443576 
L 462.65636 -49.443576 
L 462.640454 -49.443576 
L 462.624547 -49.443576 
L 462.608641 -49.443576 
L 462.592734 -49.443576 
L 462.576828 -49.443576 
L 462.560921 -49.443576 
L 462.545015 -49.443576 
L 462.529108 -49.443576 
L 462.513202 -49.443576 
L 462.497295 -49.443576 
L 462.481389 -49.443576 
L 462.465482 -49.443576 
L 462.449576 -49.443576 
L 462.433669 -49.443576 
L 462.417763 -49.443576 
L 462.401857 -49.443576 
L 462.38595 -49.443576 
L 462.370044 -49.443576 
L 462.354137 -49.443576 
L 462.338231 -49.443576 
L 462.322324 -49.443576 
L 462.306418 -49.443576 
L 462.290511 -49.443576 
L 462.274605 -49.443576 
L 462.258698 -49.443576 
L 462.242792 -49.443576 
L 462.226885 -49.443576 
L 462.210979 -49.443576 
L 462.195072 -49.443576 
L 462.179166 -49.443576 
L 462.163259 -49.443576 
L 462.147353 -49.443576 
L 462.131446 -49.443576 
L 462.11554 -49.443576 
L 462.099633 -49.443576 
L 462.083727 -49.443576 
L 462.06782 -49.443576 
L 462.051914 -49.443576 
L 462.036008 -49.443576 
L 462.020101 -49.443576 
L 462.004195 -49.443576 
L 461.988288 -49.443576 
L 461.972382 -49.443576 
L 461.956475 -49.443576 
L 461.940569 -49.443576 
L 461.924662 -49.443576 
L 461.908756 -49.443576 
L 461.892849 -49.443576 
L 461.876943 -49.443576 
L 461.861036 -49.443576 
L 461.84513 -49.443576 
L 461.829223 -49.443576 
L 461.813317 -49.443576 
L 461.79741 -49.443576 
L 461.781504 -49.443576 
L 461.765597 -49.443576 
L 461.749691 -49.443576 
L 461.733784 -49.443576 
L 461.717878 -49.443576 
L 461.701971 -49.443576 
L 461.686065 -49.443576 
L 461.670159 -49.443576 
L 461.654252 -49.443576 
L 461.638346 -49.443576 
z
"/>
    </defs>
    <g clip-path="url(#p179accff91)">
     <use xlink:href="#m628d776b89" x="0" y="308.976378" style="fill: #9ecae1; fill-opacity: 0.5"/>
    </g>
   </g>
   <g id="FillBetweenPolyCollection_7">
    <defs>
     <path id="m2e96ba3419" d="M 499.463951 -49.443576 
L 499.479857 -49.455803 
L 499.495764 -49.470509 
L 499.51167 -49.485416 
L 499.527577 -49.500463 
L 499.543483 -49.515696 
L 499.559389 -49.531053 
L 499.575296 -49.546549 
L 499.591202 -49.562184 
L 499.607109 -49.577929 
L 499.623015 -49.593766 
L 499.638922 -49.609711 
L 499.654828 -49.625719 
L 499.670735 -49.641804 
L 499.686641 -49.657936 
L 499.702548 -49.674098 
L 499.718454 -49.690307 
L 499.734361 -49.706501 
L 499.750267 -49.72271 
L 499.766174 -49.738904 
L 499.78208 -49.755051 
L 499.797987 -49.771151 
L 499.813893 -49.78719 
L 499.8298 -49.803151 
L 499.845706 -49.819019 
L 499.861613 -49.834763 
L 499.877519 -49.850399 
L 499.893426 -49.86588 
L 499.909332 -49.881221 
L 499.925238 -49.896361 
L 499.941145 -49.91133 
L 499.957051 -49.926098 
L 499.972958 -49.940634 
L 499.988864 -49.954937 
L 500.004771 -49.969007 
L 500.020677 -49.982799 
L 500.036584 -49.996296 
L 500.05249 -50.009514 
L 500.068397 -50.022423 
L 500.084303 -50.035006 
L 500.10021 -50.047248 
L 500.116116 -50.059149 
L 500.132023 -50.070693 
L 500.147929 -50.081851 
L 500.163836 -50.092636 
L 500.179742 -50.103019 
L 500.195649 -50.112998 
L 500.211555 -50.122575 
L 500.227462 -50.131702 
L 500.243368 -50.140411 
L 500.259275 -50.148686 
L 500.275181 -50.156512 
L 500.291087 -50.163872 
L 500.306994 -50.170784 
L 500.3229 -50.177215 
L 500.338807 -50.183196 
L 500.354713 -50.188697 
L 500.37062 -50.193718 
L 500.386526 -50.198258 
L 500.402433 -50.202318 
L 500.418339 -50.205898 
L 500.434246 -50.208997 
L 500.450152 -50.211601 
L 500.466059 -50.213724 
L 500.481965 -50.215366 
L 500.497872 -50.216529 
L 500.513778 -50.21721 
L 500.529685 -50.217412 
L 500.545591 -50.217133 
L 500.561498 -50.216389 
L 500.577404 -50.21518 
L 500.593311 -50.213507 
L 500.609217 -50.211368 
L 500.625124 -50.20878 
L 500.64103 -50.205759 
L 500.656936 -50.202303 
L 500.672843 -50.198398 
L 500.688749 -50.19409 
L 500.704656 -50.189348 
L 500.720562 -50.184219 
L 500.736469 -50.178671 
L 500.752375 -50.172752 
L 500.768282 -50.166445 
L 500.784188 -50.159766 
L 500.800095 -50.152715 
L 500.816001 -50.145323 
L 500.831908 -50.137591 
L 500.847814 -50.129517 
L 500.863721 -50.121134 
L 500.879627 -50.11244 
L 500.895534 -50.103437 
L 500.91144 -50.094139 
L 500.927347 -50.084578 
L 500.943253 -50.074738 
L 500.95916 -50.06465 
L 500.975066 -50.054314 
L 500.990973 -50.04373 
L 501.006879 -50.032945 
L 501.022785 -50.021942 
L 501.038692 -50.010723 
L 501.054598 -49.999349 
L 501.070505 -49.987773 
L 501.086411 -49.976042 
L 501.102318 -49.964157 
L 501.118224 -49.952132 
L 501.134131 -49.939983 
L 501.150037 -49.92771 
L 501.165944 -49.915328 
L 501.18185 -49.902854 
L 501.197757 -49.890302 
L 501.213663 -49.877657 
L 501.22957 -49.86495 
L 501.245476 -49.852181 
L 501.261383 -49.839381 
L 501.277289 -49.826519 
L 501.293196 -49.813657 
L 501.309102 -49.800765 
L 501.325009 -49.787856 
L 501.340915 -49.774948 
L 501.356822 -49.762055 
L 501.372728 -49.749178 
L 501.388634 -49.736331 
L 501.404541 -49.7235 
L 501.420447 -49.710731 
L 501.436354 -49.698009 
L 501.45226 -49.685333 
L 501.468167 -49.672719 
L 501.484073 -49.660183 
L 501.49998 -49.647724 
L 501.515886 -49.635358 
L 501.531793 -49.623069 
L 501.547699 -49.610874 
L 501.563606 -49.598787 
L 501.579512 -49.586808 
L 501.595419 -49.574922 
L 501.611325 -49.563176 
L 501.627232 -49.551523 
L 501.643138 -49.540009 
L 501.659045 -49.52862 
L 501.674951 -49.517354 
L 501.690858 -49.506212 
L 501.706764 -49.495225 
L 501.722671 -49.484378 
L 501.738577 -49.47367 
L 501.754483 -49.463102 
L 501.77039 -49.452688 
L 501.786296 -49.443576 
L 501.77039 -49.443576 
L 501.754483 -49.443576 
L 501.738577 -49.443576 
L 501.722671 -49.443576 
L 501.706764 -49.443576 
L 501.690858 -49.443576 
L 501.674951 -49.443576 
L 501.659045 -49.443576 
L 501.643138 -49.443576 
L 501.627232 -49.443576 
L 501.611325 -49.443576 
L 501.595419 -49.443576 
L 501.579512 -49.443576 
L 501.563606 -49.443576 
L 501.547699 -49.443576 
L 501.531793 -49.443576 
L 501.515886 -49.443576 
L 501.49998 -49.443576 
L 501.484073 -49.443576 
L 501.468167 -49.443576 
L 501.45226 -49.443576 
L 501.436354 -49.443576 
L 501.420447 -49.443576 
L 501.404541 -49.443576 
L 501.388634 -49.443576 
L 501.372728 -49.443576 
L 501.356822 -49.443576 
L 501.340915 -49.443576 
L 501.325009 -49.443576 
L 501.309102 -49.443576 
L 501.293196 -49.443576 
L 501.277289 -49.443576 
L 501.261383 -49.443576 
L 501.245476 -49.443576 
L 501.22957 -49.443576 
L 501.213663 -49.443576 
L 501.197757 -49.443576 
L 501.18185 -49.443576 
L 501.165944 -49.443576 
L 501.150037 -49.443576 
L 501.134131 -49.443576 
L 501.118224 -49.443576 
L 501.102318 -49.443576 
L 501.086411 -49.443576 
L 501.070505 -49.443576 
L 501.054598 -49.443576 
L 501.038692 -49.443576 
L 501.022785 -49.443576 
L 501.006879 -49.443576 
L 500.990973 -49.443576 
L 500.975066 -49.443576 
L 500.95916 -49.443576 
L 500.943253 -49.443576 
L 500.927347 -49.443576 
L 500.91144 -49.443576 
L 500.895534 -49.443576 
L 500.879627 -49.443576 
L 500.863721 -49.443576 
L 500.847814 -49.443576 
L 500.831908 -49.443576 
L 500.816001 -49.443576 
L 500.800095 -49.443576 
L 500.784188 -49.443576 
L 500.768282 -49.443576 
L 500.752375 -49.443576 
L 500.736469 -49.443576 
L 500.720562 -49.443576 
L 500.704656 -49.443576 
L 500.688749 -49.443576 
L 500.672843 -49.443576 
L 500.656936 -49.443576 
L 500.64103 -49.443576 
L 500.625124 -49.443576 
L 500.609217 -49.443576 
L 500.593311 -49.443576 
L 500.577404 -49.443576 
L 500.561498 -49.443576 
L 500.545591 -49.443576 
L 500.529685 -49.443576 
L 500.513778 -49.443576 
L 500.497872 -49.443576 
L 500.481965 -49.443576 
L 500.466059 -49.443576 
L 500.450152 -49.443576 
L 500.434246 -49.443576 
L 500.418339 -49.443576 
L 500.402433 -49.443576 
L 500.386526 -49.443576 
L 500.37062 -49.443576 
L 500.354713 -49.443576 
L 500.338807 -49.443576 
L 500.3229 -49.443576 
L 500.306994 -49.443576 
L 500.291087 -49.443576 
L 500.275181 -49.443576 
L 500.259275 -49.443576 
L 500.243368 -49.443576 
L 500.227462 -49.443576 
L 500.211555 -49.443576 
L 500.195649 -49.443576 
L 500.179742 -49.443576 
L 500.163836 -49.443576 
L 500.147929 -49.443576 
L 500.132023 -49.443576 
L 500.116116 -49.443576 
L 500.10021 -49.443576 
L 500.084303 -49.443576 
L 500.068397 -49.443576 
L 500.05249 -49.443576 
L 500.036584 -49.443576 
L 500.020677 -49.443576 
L 500.004771 -49.443576 
L 499.988864 -49.443576 
L 499.972958 -49.443576 
L 499.957051 -49.443576 
L 499.941145 -49.443576 
L 499.925238 -49.443576 
L 499.909332 -49.443576 
L 499.893426 -49.443576 
L 499.877519 -49.443576 
L 499.861613 -49.443576 
L 499.845706 -49.443576 
L 499.8298 -49.443576 
L 499.813893 -49.443576 
L 499.797987 -49.443576 
L 499.78208 -49.443576 
L 499.766174 -49.443576 
L 499.750267 -49.443576 
L 499.734361 -49.443576 
L 499.718454 -49.443576 
L 499.702548 -49.443576 
L 499.686641 -49.443576 
L 499.670735 -49.443576 
L 499.654828 -49.443576 
L 499.638922 -49.443576 
L 499.623015 -49.443576 
L 499.607109 -49.443576 
L 499.591202 -49.443576 
L 499.575296 -49.443576 
L 499.559389 -49.443576 
L 499.543483 -49.443576 
L 499.527577 -49.443576 
L 499.51167 -49.443576 
L 499.495764 -49.443576 
L 499.479857 -49.443576 
z
"/>
    </defs>
    <g clip-path="url(#p179accff91)">
     <use xlink:href="#m2e96ba3419" x="0" y="308.976378" style="fill: #9ecae1; fill-opacity: 0.5"/>
    </g>
   </g>
   <g id="matplotlib.axis_1">
    <g id="xtick_1">
     <g id="line2d_8">
      <defs>
       <path id="mbe841fcd6c" d="M 0 0 
L 0 3.5 
" style="stroke: #000000; stroke-width: 0.8"/>
      </defs>
      <g>
       <use xlink:href="#mbe841fcd6c" x="44.69774" y="271.748638" style="stroke: #000000; stroke-width: 0.8"/>
      </g>
     </g>
     <g id="text_1">
      <!-- 0 -->
      <g transform="translate(40.88024 287.866763) scale(0.12 -0.12)">
       <defs>
        <path id="DejaVuSans-30" d="M 2034 4250 
Q 1547 4250 1301 3770 
Q 1056 3291 1056 2328 
Q 1056 1369 1301 889 
Q 1547 409 2034 409 
Q 2525 409 2770 889 
Q 3016 1369 3016 2328 
Q 3016 3291 2770 3770 
Q 2525 4250 2034 4250 
z
M 2034 4750 
Q 2819 4750 3233 4129 
Q 3647 3509 3647 2328 
Q 3647 1150 3233 529 
Q 2819 -91 2034 -91 
Q 1250 -91 836 529 
Q 422 1150 422 2328 
Q 422 3509 836 4129 
Q 1250 4750 2034 4750 
z
" transform="scale(0.015625)"/>
       </defs>
       <use xlink:href="#DejaVuSans-30"/>
      </g>
     </g>
    </g>
    <g id="xtick_2">
     <g id="line2d_9">
      <g>
       <use xlink:href="#mbe841fcd6c" x="140.136608" y="271.748638" style="stroke: #000000; stroke-width: 0.8"/>
      </g>
     </g>
     <g id="text_2">
      <!-- 5 -->
      <g transform="translate(136.319108 287.866763) scale(0.12 -0.12)">
       <defs>
        <path id="DejaVuSans-35" d="M 691 4666 
L 3169 4666 
L 3169 4134 
L 1269 4134 
L 1269 2991 
Q 1406 3038 1543 3061 
Q 1681 3084 1819 3084 
Q 2600 3084 3056 2656 
Q 3513 2228 3513 1497 
Q 3513 744 3044 326 
Q 2575 -91 1722 -91 
Q 1428 -91 1123 -41 
Q 819 9 494 109 
L 494 744 
Q 775 591 1075 516 
Q 1375 441 1709 441 
Q 2250 441 2565 725 
Q 2881 1009 2881 1497 
Q 2881 1984 2565 2268 
Q 2250 2553 1709 2553 
Q 1456 2553 1204 2497 
Q 953 2441 691 2322 
L 691 4666 
z
" transform="scale(0.015625)"/>
       </defs>
       <use xlink:href="#DejaVuSans-35"/>
      </g>
     </g>
    </g>
    <g id="xtick_3">
     <g id="line2d_10">
      <g>
       <use xlink:href="#mbe841fcd6c" x="235.575475" y="271.748638" style="stroke: #000000; stroke-width: 0.8"/>
      </g>
     </g>
     <g id="text_3">
      <!-- 10 -->
      <g transform="translate(227.940475 287.866763) scale(0.12 -0.12)">
       <defs>
        <path id="DejaVuSans-31" d="M 794 531 
L 1825 531 
L 1825 4091 
L 703 3866 
L 703 4441 
L 1819 4666 
L 2450 4666 
L 2450 531 
L 3481 531 
L 3481 0 
L 794 0 
L 794 531 
z
" transform="scale(0.015625)"/>
       </defs>
       <use xlink:href="#DejaVuSans-31"/>
       <use xlink:href="#DejaVuSans-30" transform="translate(63.623047 0)"/>
      </g>
     </g>
    </g>
    <g id="xtick_4">
     <g id="line2d_11">
      <g>
       <use xlink:href="#mbe841fcd6c" x="331.014343" y="271.748638" style="stroke: #000000; stroke-width: 0.8"/>
      </g>
     </g>
     <g id="text_4">
      <!-- 15 -->
      <g transform="translate(323.379343 287.866763) scale(0.12 -0.12)">
       <use xlink:href="#DejaVuSans-31"/>
       <use xlink:href="#DejaVuSans-35" transform="translate(63.623047 0)"/>
      </g>
     </g>
    </g>
    <g id="xtick_5">
     <g id="line2d_12">
      <g>
       <use xlink:href="#mbe841fcd6c" x="426.45321" y="271.748638" style="stroke: #000000; stroke-width: 0.8"/>
      </g>
     </g>
     <g id="text_5">
      <!-- 20 -->
      <g transform="translate(418.81821 287.866763) scale(0.12 -0.12)">
       <defs>
        <path id="DejaVuSans-32" d="M 1228 531 
L 3431 531 
L 3431 0 
L 469 0 
L 469 531 
Q 828 903 1448 1529 
Q 2069 2156 2228 2338 
Q 2531 2678 2651 2914 
Q 2772 3150 2772 3378 
Q 2772 3750 2511 3984 
Q 2250 4219 1831 4219 
Q 1534 4219 1204 4116 
Q 875 4013 500 3803 
L 500 4441 
Q 881 4594 1212 4672 
Q 1544 4750 1819 4750 
Q 2544 4750 2975 4387 
Q 3406 4025 3406 3419 
Q 3406 3131 3298 2873 
Q 3191 2616 2906 2266 
Q 2828 2175 2409 1742 
Q 1991 1309 1228 531 
z
" transform="scale(0.015625)"/>
       </defs>
       <use xlink:href="#DejaVuSans-32"/>
       <use xlink:href="#DejaVuSans-30" transform="translate(63.623047 0)"/>
      </g>
     </g>
    </g>
    <g id="xtick_6">
     <g id="line2d_13">
      <g>
       <use xlink:href="#mbe841fcd6c" x="521.892078" y="271.748638" style="stroke: #000000; stroke-width: 0.8"/>
      </g>
     </g>
     <g id="text_6">
      <!-- 25 -->
      <g transform="translate(514.257078 287.866763) scale(0.12 -0.12)">
       <use xlink:href="#DejaVuSans-32"/>
       <use xlink:href="#DejaVuSans-35" transform="translate(63.623047 0)"/>
      </g>
     </g>
    </g>
    <g id="xtick_7">
     <g id="line2d_14">
      <g>
       <use xlink:href="#mbe841fcd6c" x="617.330945" y="271.748638" style="stroke: #000000; stroke-width: 0.8"/>
      </g>
     </g>
     <g id="text_7">
      <!-- 30 -->
      <g transform="translate(609.695945 287.866763) scale(0.12 -0.12)">
       <defs>
        <path id="DejaVuSans-33" d="M 2597 2516 
Q 3050 2419 3304 2112 
Q 3559 1806 3559 1356 
Q 3559 666 3084 287 
Q 2609 -91 1734 -91 
Q 1441 -91 1130 -33 
Q 819 25 488 141 
L 488 750 
Q 750 597 1062 519 
Q 1375 441 1716 441 
Q 2309 441 2620 675 
Q 2931 909 2931 1356 
Q 2931 1769 2642 2001 
Q 2353 2234 1838 2234 
L 1294 2234 
L 1294 2753 
L 1863 2753 
Q 2328 2753 2575 2939 
Q 2822 3125 2822 3475 
Q 2822 3834 2567 4026 
Q 2313 4219 1838 4219 
Q 1578 4219 1281 4162 
Q 984 4106 628 3988 
L 628 4550 
Q 988 4650 1302 4700 
Q 1616 4750 1894 4750 
Q 2613 4750 3031 4423 
Q 3450 4097 3450 3541 
Q 3450 3153 3228 2886 
Q 3006 2619 2597 2516 
z
" transform="scale(0.015625)"/>
       </defs>
       <use xlink:href="#DejaVuSans-33"/>
       <use xlink:href="#DejaVuSans-30" transform="translate(63.623047 0)"/>
      </g>
     </g>
    </g>
    <g id="xtick_8">
     <g id="line2d_15">
      <g>
       <use xlink:href="#mbe841fcd6c" x="655.506492" y="271.748638" style="stroke: #000000; stroke-width: 0.8"/>
      </g>
     </g>
     <g id="text_8">
      <!-- 32 -->
      <g transform="translate(647.871492 287.866763) scale(0.12 -0.12)">
       <use xlink:href="#DejaVuSans-33"/>
       <use xlink:href="#DejaVuSans-32" transform="translate(63.623047 0)"/>
      </g>
     </g>
    </g>
    <g id="text_9">
     <!-- time (min) -->
     <g transform="translate(318.644304 303.480513) scale(0.12 -0.12)">
      <defs>
       <path id="DejaVuSans-74" d="M 1172 4494 
L 1172 3500 
L 2356 3500 
L 2356 3053 
L 1172 3053 
L 1172 1153 
Q 1172 725 1289 603 
Q 1406 481 1766 481 
L 2356 481 
L 2356 0 
L 1766 0 
Q 1100 0 847 248 
Q 594 497 594 1153 
L 594 3053 
L 172 3053 
L 172 3500 
L 594 3500 
L 594 4494 
L 1172 4494 
z
" transform="scale(0.015625)"/>
       <path id="DejaVuSans-69" d="M 603 3500 
L 1178 3500 
L 1178 0 
L 603 0 
L 603 3500 
z
M 603 4863 
L 1178 4863 
L 1178 4134 
L 603 4134 
L 603 4863 
z
" transform="scale(0.015625)"/>
       <path id="DejaVuSans-6d" d="M 3328 2828 
Q 3544 3216 3844 3400 
Q 4144 3584 4550 3584 
Q 5097 3584 5394 3201 
Q 5691 2819 5691 2113 
L 5691 0 
L 5113 0 
L 5113 2094 
Q 5113 2597 4934 2840 
Q 4756 3084 4391 3084 
Q 3944 3084 3684 2787 
Q 3425 2491 3425 1978 
L 3425 0 
L 2847 0 
L 2847 2094 
Q 2847 2600 2669 2842 
Q 2491 3084 2119 3084 
Q 1678 3084 1418 2786 
Q 1159 2488 1159 1978 
L 1159 0 
L 581 0 
L 581 3500 
L 1159 3500 
L 1159 2956 
Q 1356 3278 1631 3431 
Q 1906 3584 2284 3584 
Q 2666 3584 2933 3390 
Q 3200 3197 3328 2828 
z
" transform="scale(0.015625)"/>
       <path id="DejaVuSans-65" d="M 3597 1894 
L 3597 1613 
L 953 1613 
Q 991 1019 1311 708 
Q 1631 397 2203 397 
Q 2534 397 2845 478 
Q 3156 559 3463 722 
L 3463 178 
Q 3153 47 2828 -22 
Q 2503 -91 2169 -91 
Q 1331 -91 842 396 
Q 353 884 353 1716 
Q 353 2575 817 3079 
Q 1281 3584 2069 3584 
Q 2775 3584 3186 3129 
Q 3597 2675 3597 1894 
z
M 3022 2063 
Q 3016 2534 2758 2815 
Q 2500 3097 2075 3097 
Q 1594 3097 1305 2825 
Q 1016 2553 972 2059 
L 3022 2063 
z
" transform="scale(0.015625)"/>
       <path id="DejaVuSans-20" transform="scale(0.015625)"/>
       <path id="DejaVuSans-28" d="M 1984 4856 
Q 1566 4138 1362 3434 
Q 1159 2731 1159 2009 
Q 1159 1288 1364 580 
Q 1569 -128 1984 -844 
L 1484 -844 
Q 1016 -109 783 600 
Q 550 1309 550 2009 
Q 550 2706 781 3412 
Q 1013 4119 1484 4856 
L 1984 4856 
z
" transform="scale(0.015625)"/>
       <path id="DejaVuSans-6e" d="M 3513 2113 
L 3513 0 
L 2938 0 
L 2938 2094 
Q 2938 2591 2744 2837 
Q 2550 3084 2163 3084 
Q 1697 3084 1428 2787 
Q 1159 2491 1159 1978 
L 1159 0 
L 581 0 
L 581 3500 
L 1159 3500 
L 1159 2956 
Q 1366 3272 1645 3428 
Q 1925 3584 2291 3584 
Q 2894 3584 3203 3211 
Q 3513 2838 3513 2113 
z
" transform="scale(0.015625)"/>
       <path id="DejaVuSans-29" d="M 513 4856 
L 1013 4856 
Q 1481 4119 1714 3412 
Q 1947 2706 1947 2009 
Q 1947 1309 1714 600 
Q 1481 -109 1013 -844 
L 513 -844 
Q 928 -128 1133 580 
Q 1338 1288 1338 2009 
Q 1338 2731 1133 3434 
Q 928 4138 513 4856 
z
" transform="scale(0.015625)"/>
      </defs>
      <use xlink:href="#DejaVuSans-74"/>
      <use xlink:href="#DejaVuSans-69" transform="translate(39.208984 0)"/>
      <use xlink:href="#DejaVuSans-6d" transform="translate(66.992188 0)"/>
      <use xlink:href="#DejaVuSans-65" transform="translate(164.404297 0)"/>
      <use xlink:href="#DejaVuSans-20" transform="translate(225.927734 0)"/>
      <use xlink:href="#DejaVuSans-28" transform="translate(257.714844 0)"/>
      <use xlink:href="#DejaVuSans-6d" transform="translate(296.728516 0)"/>
      <use xlink:href="#DejaVuSans-69" transform="translate(394.140625 0)"/>
      <use xlink:href="#DejaVuSans-6e" transform="translate(421.923828 0)"/>
      <use xlink:href="#DejaVuSans-29" transform="translate(485.302734 0)"/>
     </g>
    </g>
   </g>
   <g id="matplotlib.axis_2">
    <g id="ytick_1">
     <g id="line2d_16">
      <defs>
       <path id="md59e879564" d="M 0 0 
L -3.5 0 
" style="stroke: #000000; stroke-width: 0.8"/>
      </defs>
      <g>
       <use xlink:href="#md59e879564" x="44.69774" y="259.532802" style="stroke: #000000; stroke-width: 0.8"/>
      </g>
     </g>
     <g id="text_10">
      <!-- 0.0 -->
      <g transform="translate(18.61399 264.091864) scale(0.12 -0.12)">
       <defs>
        <path id="DejaVuSans-2e" d="M 684 794 
L 1344 794 
L 1344 0 
L 684 0 
L 684 794 
z
" transform="scale(0.015625)"/>
       </defs>
       <use xlink:href="#DejaVuSans-30"/>
       <use xlink:href="#DejaVuSans-2e" transform="translate(63.623047 0)"/>
       <use xlink:href="#DejaVuSans-30" transform="translate(95.410156 0)"/>
      </g>
     </g>
    </g>
    <g id="ytick_2">
     <g id="line2d_17">
      <g>
       <use xlink:href="#md59e879564" x="44.69774" y="228.540329" style="stroke: #000000; stroke-width: 0.8"/>
      </g>
     </g>
     <g id="text_11">
      <!-- 0.2 -->
      <g transform="translate(18.61399 233.099391) scale(0.12 -0.12)">
       <use xlink:href="#DejaVuSans-30"/>
       <use xlink:href="#DejaVuSans-2e" transform="translate(63.623047 0)"/>
       <use xlink:href="#DejaVuSans-32" transform="translate(95.410156 0)"/>
      </g>
     </g>
    </g>
    <g id="ytick_3">
     <g id="line2d_18">
      <g>
       <use xlink:href="#md59e879564" x="44.69774" y="197.547855" style="stroke: #000000; stroke-width: 0.8"/>
      </g>
     </g>
     <g id="text_12">
      <!-- 0.4 -->
      <g transform="translate(18.61399 202.106918) scale(0.12 -0.12)">
       <defs>
        <path id="DejaVuSans-34" d="M 2419 4116 
L 825 1625 
L 2419 1625 
L 2419 4116 
z
M 2253 4666 
L 3047 4666 
L 3047 1625 
L 3713 1625 
L 3713 1100 
L 3047 1100 
L 3047 0 
L 2419 0 
L 2419 1100 
L 313 1100 
L 313 1709 
L 2253 4666 
z
" transform="scale(0.015625)"/>
       </defs>
       <use xlink:href="#DejaVuSans-30"/>
       <use xlink:href="#DejaVuSans-2e" transform="translate(63.623047 0)"/>
       <use xlink:href="#DejaVuSans-34" transform="translate(95.410156 0)"/>
      </g>
     </g>
    </g>
    <g id="ytick_4">
     <g id="line2d_19">
      <g>
       <use xlink:href="#md59e879564" x="44.69774" y="166.555382" style="stroke: #000000; stroke-width: 0.8"/>
      </g>
     </g>
     <g id="text_13">
      <!-- 0.6 -->
      <g transform="translate(18.61399 171.114445) scale(0.12 -0.12)">
       <defs>
        <path id="DejaVuSans-36" d="M 2113 2584 
Q 1688 2584 1439 2293 
Q 1191 2003 1191 1497 
Q 1191 994 1439 701 
Q 1688 409 2113 409 
Q 2538 409 2786 701 
Q 3034 994 3034 1497 
Q 3034 2003 2786 2293 
Q 2538 2584 2113 2584 
z
M 3366 4563 
L 3366 3988 
Q 3128 4100 2886 4159 
Q 2644 4219 2406 4219 
Q 1781 4219 1451 3797 
Q 1122 3375 1075 2522 
Q 1259 2794 1537 2939 
Q 1816 3084 2150 3084 
Q 2853 3084 3261 2657 
Q 3669 2231 3669 1497 
Q 3669 778 3244 343 
Q 2819 -91 2113 -91 
Q 1303 -91 875 529 
Q 447 1150 447 2328 
Q 447 3434 972 4092 
Q 1497 4750 2381 4750 
Q 2619 4750 2861 4703 
Q 3103 4656 3366 4563 
z
" transform="scale(0.015625)"/>
       </defs>
       <use xlink:href="#DejaVuSans-30"/>
       <use xlink:href="#DejaVuSans-2e" transform="translate(63.623047 0)"/>
       <use xlink:href="#DejaVuSans-36" transform="translate(95.410156 0)"/>
      </g>
     </g>
    </g>
    <g id="ytick_5">
     <g id="line2d_20">
      <g>
       <use xlink:href="#md59e879564" x="44.69774" y="135.562909" style="stroke: #000000; stroke-width: 0.8"/>
      </g>
     </g>
     <g id="text_14">
      <!-- 0.8 -->
      <g transform="translate(18.61399 140.121972) scale(0.12 -0.12)">
       <defs>
        <path id="DejaVuSans-38" d="M 2034 2216 
Q 1584 2216 1326 1975 
Q 1069 1734 1069 1313 
Q 1069 891 1326 650 
Q 1584 409 2034 409 
Q 2484 409 2743 651 
Q 3003 894 3003 1313 
Q 3003 1734 2745 1975 
Q 2488 2216 2034 2216 
z
M 1403 2484 
Q 997 2584 770 2862 
Q 544 3141 544 3541 
Q 544 4100 942 4425 
Q 1341 4750 2034 4750 
Q 2731 4750 3128 4425 
Q 3525 4100 3525 3541 
Q 3525 3141 3298 2862 
Q 3072 2584 2669 2484 
Q 3125 2378 3379 2068 
Q 3634 1759 3634 1313 
Q 3634 634 3220 271 
Q 2806 -91 2034 -91 
Q 1263 -91 848 271 
Q 434 634 434 1313 
Q 434 1759 690 2068 
Q 947 2378 1403 2484 
z
M 1172 3481 
Q 1172 3119 1398 2916 
Q 1625 2713 2034 2713 
Q 2441 2713 2670 2916 
Q 2900 3119 2900 3481 
Q 2900 3844 2670 4047 
Q 2441 4250 2034 4250 
Q 1625 4250 1398 4047 
Q 1172 3844 1172 3481 
z
" transform="scale(0.015625)"/>
       </defs>
       <use xlink:href="#DejaVuSans-30"/>
       <use xlink:href="#DejaVuSans-2e" transform="translate(63.623047 0)"/>
       <use xlink:href="#DejaVuSans-38" transform="translate(95.410156 0)"/>
      </g>
     </g>
    </g>
    <g id="ytick_6">
     <g id="line2d_21">
      <g>
       <use xlink:href="#md59e879564" x="44.69774" y="104.570436" style="stroke: #000000; stroke-width: 0.8"/>
      </g>
     </g>
     <g id="text_15">
      <!-- 1.0 -->
      <g transform="translate(18.61399 109.129498) scale(0.12 -0.12)">
       <use xlink:href="#DejaVuSans-31"/>
       <use xlink:href="#DejaVuSans-2e" transform="translate(63.623047 0)"/>
       <use xlink:href="#DejaVuSans-30" transform="translate(95.410156 0)"/>
      </g>
     </g>
    </g>
    <g id="ytick_7">
     <g id="line2d_22">
      <g>
       <use xlink:href="#md59e879564" x="44.69774" y="73.577963" style="stroke: #000000; stroke-width: 0.8"/>
      </g>
     </g>
     <g id="text_16">
      <!-- 1.2 -->
      <g transform="translate(18.61399 78.137025) scale(0.12 -0.12)">
       <use xlink:href="#DejaVuSans-31"/>
       <use xlink:href="#DejaVuSans-2e" transform="translate(63.623047 0)"/>
       <use xlink:href="#DejaVuSans-32" transform="translate(95.410156 0)"/>
      </g>
     </g>
    </g>
    <g id="ytick_8">
     <g id="line2d_23">
      <g>
       <use xlink:href="#md59e879564" x="44.69774" y="42.58549" style="stroke: #000000; stroke-width: 0.8"/>
      </g>
     </g>
     <g id="text_17">
      <!-- 1.4 -->
      <g transform="translate(18.61399 47.144552) scale(0.12 -0.12)">
       <use xlink:href="#DejaVuSans-31"/>
       <use xlink:href="#DejaVuSans-2e" transform="translate(63.623047 0)"/>
       <use xlink:href="#DejaVuSans-34" transform="translate(95.410156 0)"/>
      </g>
     </g>
    </g>
    <g id="ytick_9">
     <g id="line2d_24">
      <g>
       <use xlink:href="#md59e879564" x="44.69774" y="11.593017" style="stroke: #000000; stroke-width: 0.8"/>
      </g>
     </g>
     <g id="text_18">
      <!-- 1.6 -->
      <g transform="translate(18.61399 16.152079) scale(0.12 -0.12)">
       <use xlink:href="#DejaVuSans-31"/>
       <use xlink:href="#DejaVuSans-2e" transform="translate(63.623047 0)"/>
       <use xlink:href="#DejaVuSans-36" transform="translate(95.410156 0)"/>
      </g>
     </g>
    </g>
    <g id="text_19">
     <!-- Intensity (AU) -->
     <g transform="translate(12.118365 178.573814) rotate(-90) scale(0.12 -0.12)">
      <defs>
       <path id="DejaVuSans-49" d="M 628 4666 
L 1259 4666 
L 1259 0 
L 628 0 
L 628 4666 
z
" transform="scale(0.015625)"/>
       <path id="DejaVuSans-73" d="M 2834 3397 
L 2834 2853 
Q 2591 2978 2328 3040 
Q 2066 3103 1784 3103 
Q 1356 3103 1142 2972 
Q 928 2841 928 2578 
Q 928 2378 1081 2264 
Q 1234 2150 1697 2047 
L 1894 2003 
Q 2506 1872 2764 1633 
Q 3022 1394 3022 966 
Q 3022 478 2636 193 
Q 2250 -91 1575 -91 
Q 1294 -91 989 -36 
Q 684 19 347 128 
L 347 722 
Q 666 556 975 473 
Q 1284 391 1588 391 
Q 1994 391 2212 530 
Q 2431 669 2431 922 
Q 2431 1156 2273 1281 
Q 2116 1406 1581 1522 
L 1381 1569 
Q 847 1681 609 1914 
Q 372 2147 372 2553 
Q 372 3047 722 3315 
Q 1072 3584 1716 3584 
Q 2034 3584 2315 3537 
Q 2597 3491 2834 3397 
z
" transform="scale(0.015625)"/>
       <path id="DejaVuSans-79" d="M 2059 -325 
Q 1816 -950 1584 -1140 
Q 1353 -1331 966 -1331 
L 506 -1331 
L 506 -850 
L 844 -850 
Q 1081 -850 1212 -737 
Q 1344 -625 1503 -206 
L 1606 56 
L 191 3500 
L 800 3500 
L 1894 763 
L 2988 3500 
L 3597 3500 
L 2059 -325 
z
" transform="scale(0.015625)"/>
       <path id="DejaVuSans-41" d="M 2188 4044 
L 1331 1722 
L 3047 1722 
L 2188 4044 
z
M 1831 4666 
L 2547 4666 
L 4325 0 
L 3669 0 
L 3244 1197 
L 1141 1197 
L 716 0 
L 50 0 
L 1831 4666 
z
" transform="scale(0.015625)"/>
       <path id="DejaVuSans-55" d="M 556 4666 
L 1191 4666 
L 1191 1831 
Q 1191 1081 1462 751 
Q 1734 422 2344 422 
Q 2950 422 3222 751 
Q 3494 1081 3494 1831 
L 3494 4666 
L 4128 4666 
L 4128 1753 
Q 4128 841 3676 375 
Q 3225 -91 2344 -91 
Q 1459 -91 1007 375 
Q 556 841 556 1753 
L 556 4666 
z
" transform="scale(0.015625)"/>
      </defs>
      <use xlink:href="#DejaVuSans-49"/>
      <use xlink:href="#DejaVuSans-6e" transform="translate(29.492188 0)"/>
      <use xlink:href="#DejaVuSans-74" transform="translate(92.871094 0)"/>
      <use xlink:href="#DejaVuSans-65" transform="translate(132.080078 0)"/>
      <use xlink:href="#DejaVuSans-6e" transform="translate(193.603516 0)"/>
      <use xlink:href="#DejaVuSans-73" transform="translate(256.982422 0)"/>
      <use xlink:href="#DejaVuSans-69" transform="translate(309.082031 0)"/>
      <use xlink:href="#DejaVuSans-74" transform="translate(336.865234 0)"/>
      <use xlink:href="#DejaVuSans-79" transform="translate(376.074219 0)"/>
      <use xlink:href="#DejaVuSans-20" transform="translate(435.253906 0)"/>
      <use xlink:href="#DejaVuSans-28" transform="translate(467.041016 0)"/>
      <use xlink:href="#DejaVuSans-41" transform="translate(506.054688 0)"/>
      <use xlink:href="#DejaVuSans-55" transform="translate(574.462891 0)"/>
      <use xlink:href="#DejaVuSans-29" transform="translate(647.65625 0)"/>
     </g>
    </g>
   </g>
   <g id="line2d_25">
    <path d="M 44.69774 259.532802 
L 91.796822 259.440739 
L 91.9877 257.305109 
L 92.337642 249.92794 
L 92.623959 245.992422 
L 92.671678 245.92004 
L 92.719398 246.019309 
L 92.846649 247.004776 
L 93.785132 256.570401 
L 94.246419 258.119033 
L 94.659988 258.819835 
L 95.05765 259.075275 
L 95.789348 259.195185 
L 96.18701 259.119161 
L 96.45742 258.807237 
L 97.014147 257.66879 
L 97.618593 256.626963 
L 97.729938 256.773759 
L 97.904909 257.519081 
L 98.334384 259.532802 
L 105.237796 259.42236 
L 105.667271 259.116604 
L 105.921774 259.193636 
L 106.558034 259.532802 
L 209.647919 259.434509 
L 209.966048 258.795909 
L 210.268271 257.607627 
L 210.554588 255.498868 
L 210.856811 251.398362 
L 211.17494 243.525422 
L 211.508976 229.109939 
L 211.890732 202.193257 
L 212.415646 147.049445 
L 213.449567 36.34908 
L 213.815416 18.507994 
L 214.038107 15.236101 
L 214.069919 15.22365 
L 214.101732 15.320578 
L 214.213078 16.493352 
L 214.419862 21.842565 
L 214.753898 37.650647 
L 215.310625 76.736184 
L 216.948992 197.700464 
L 217.521625 222.208273 
L 218.030633 235.40479 
L 218.507827 242.47019 
L 218.953208 246.116237 
L 219.414496 248.185295 
L 219.93941 249.524774 
L 220.861986 251.143247 
L 223.168425 255.135884 
L 224.536382 257.589837 
L 225.220361 258.338848 
L 225.904339 258.758641 
L 226.922354 259.109444 
L 228.417563 259.360685 
L 230.405873 259.443698 
L 271.508212 259.532802 
L 351.00879 259.422345 
L 351.963179 259.483245 
L 353.092539 259.532802 
L 461.733784 259.430403 
L 462.020101 258.925132 
L 462.338231 257.836987 
L 462.735893 255.553632 
L 463.51531 251.005502 
L 463.722094 250.76235 
L 463.849346 250.901165 
L 464.05613 251.549342 
L 464.437886 253.666577 
L 465.217303 257.947041 
L 465.630872 259.068906 
L 466.012627 259.532802 
L 499.575296 259.429829 
L 500.386526 258.778119 
L 500.736469 258.797707 
L 501.197757 259.086076 
L 501.929455 259.532802 
L 655.490595 259.532802 
L 655.490595 259.532802 
" clip-path="url(#p179accff91)" style="fill: none; stroke: #0000ff; stroke-width: 1.5; stroke-linecap: square"/>
   </g>
   <g id="patch_3">
    <path d="M 44.69774 271.748638 
L 44.69774 3.00024 
" style="fill: none; stroke: #000000; stroke-width: 0.8; stroke-linejoin: miter; stroke-linecap: square"/>
   </g>
   <g id="patch_4">
    <path d="M 655.506492 271.748638 
L 655.506492 3.00024 
" style="fill: none; stroke: #000000; stroke-width: 0.8; stroke-linejoin: miter; stroke-linecap: square"/>
   </g>
   <g id="patch_5">
    <path d="M 44.69774 271.748638 
L 655.506492 271.748638 
" style="fill: none; stroke: #000000; stroke-width: 0.8; stroke-linejoin: miter; stroke-linecap: square"/>
   </g>
   <g id="patch_6">
    <path d="M 44.69774 3.00024 
L 655.506492 3.00024 
" style="fill: none; stroke: #000000; stroke-width: 0.8; stroke-linejoin: miter; stroke-linecap: square"/>
   </g>
   <g id="PathCollection_1">
    <defs>
     <path id="m1ce3dc37d2" d="M -3 3 
L 3 -3 
M -3 -3 
L 3 3 
" style="stroke: #ff0000; stroke-width: 1.5"/>
    </defs>
    <g clip-path="url(#p179accff91)">
     <use xlink:href="#m1ce3dc37d2" x="214.054013" y="15.216076" style="fill: #ff0000; stroke: #ff0000; stroke-width: 1.5"/>
    </g>
   </g>
   <g id="text_20">
    <!-- tr = 8.87 min -->
    <g transform="translate(222.108057 29.334201) scale(0.12 -0.12)">
     <defs>
      <path id="DejaVuSans-72" d="M 2631 2963 
Q 2534 3019 2420 3045 
Q 2306 3072 2169 3072 
Q 1681 3072 1420 2755 
Q 1159 2438 1159 1844 
L 1159 0 
L 581 0 
L 581 3500 
L 1159 3500 
L 1159 2956 
Q 1341 3275 1631 3429 
Q 1922 3584 2338 3584 
Q 2397 3584 2469 3576 
Q 2541 3569 2628 3553 
L 2631 2963 
z
" transform="scale(0.015625)"/>
      <path id="DejaVuSans-3d" d="M 678 2906 
L 4684 2906 
L 4684 2381 
L 678 2381 
L 678 2906 
z
M 678 1631 
L 4684 1631 
L 4684 1100 
L 678 1100 
L 678 1631 
z
" transform="scale(0.015625)"/>
      <path id="DejaVuSans-37" d="M 525 4666 
L 3525 4666 
L 3525 4397 
L 1831 0 
L 1172 0 
L 2766 4134 
L 525 4134 
L 525 4666 
z
" transform="scale(0.015625)"/>
     </defs>
     <use xlink:href="#DejaVuSans-74"/>
     <use xlink:href="#DejaVuSans-72" transform="translate(39.208984 0)"/>
     <use xlink:href="#DejaVuSans-20" transform="translate(80.322266 0)"/>
     <use xlink:href="#DejaVuSans-3d" transform="translate(112.109375 0)"/>
     <use xlink:href="#DejaVuSans-20" transform="translate(195.898438 0)"/>
     <use xlink:href="#DejaVuSans-38" transform="translate(227.685547 0)"/>
     <use xlink:href="#DejaVuSans-2e" transform="translate(291.308594 0)"/>
     <use xlink:href="#DejaVuSans-38" transform="translate(323.095703 0)"/>
     <use xlink:href="#DejaVuSans-37" transform="translate(386.71875 0)"/>
     <use xlink:href="#DejaVuSans-20" transform="translate(450.341797 0)"/>
     <use xlink:href="#DejaVuSans-6d" transform="translate(482.128906 0)"/>
     <use xlink:href="#DejaVuSans-69" transform="translate(579.541016 0)"/>
     <use xlink:href="#DejaVuSans-6e" transform="translate(607.324219 0)"/>
    </g>
   </g>
  </g>
  <g id="axes_2">
   <g id="patch_7">
    <path d="M 66.614173 123.590551 
L 233.149606 123.590551 
L 233.149606 46.346457 
L 66.614173 46.346457 
z
" style="fill: #ffffff"/>
   </g>
   <g id="matplotlib.axis_3">
    <g id="xtick_9">
     <g id="line2d_26">
      <g>
       <use xlink:href="#mbe841fcd6c" x="66.614173" y="123.590551" style="stroke: #000000; stroke-width: 0.8"/>
      </g>
     </g>
     <g id="text_21">
      <!-- 7.9 -->
      <g transform="translate(58.662611 138.188989) scale(0.1 -0.1)">
       <defs>
        <path id="DejaVuSans-39" d="M 703 97 
L 703 672 
Q 941 559 1184 500 
Q 1428 441 1663 441 
Q 2288 441 2617 861 
Q 2947 1281 2994 2138 
Q 2813 1869 2534 1725 
Q 2256 1581 1919 1581 
Q 1219 1581 811 2004 
Q 403 2428 403 3163 
Q 403 3881 828 4315 
Q 1253 4750 1959 4750 
Q 2769 4750 3195 4129 
Q 3622 3509 3622 2328 
Q 3622 1225 3098 567 
Q 2575 -91 1691 -91 
Q 1453 -91 1209 -44 
Q 966 3 703 97 
z
M 1959 2075 
Q 2384 2075 2632 2365 
Q 2881 2656 2881 3163 
Q 2881 3666 2632 3958 
Q 2384 4250 1959 4250 
Q 1534 4250 1286 3958 
Q 1038 3666 1038 3163 
Q 1038 2656 1286 2365 
Q 1534 2075 1959 2075 
z
" transform="scale(0.015625)"/>
       </defs>
       <use xlink:href="#DejaVuSans-37"/>
       <use xlink:href="#DejaVuSans-2e" transform="translate(63.623047 0)"/>
       <use xlink:href="#DejaVuSans-39" transform="translate(95.410156 0)"/>
      </g>
     </g>
    </g>
    <g id="xtick_10">
     <g id="line2d_27">
      <g>
       <use xlink:href="#mbe841fcd6c" x="149.88189" y="123.590551" style="stroke: #000000; stroke-width: 0.8"/>
      </g>
     </g>
     <g id="text_22">
      <!-- 8.9 -->
      <g transform="translate(141.930327 138.188989) scale(0.1 -0.1)">
       <use xlink:href="#DejaVuSans-38"/>
       <use xlink:href="#DejaVuSans-2e" transform="translate(63.623047 0)"/>
       <use xlink:href="#DejaVuSans-39" transform="translate(95.410156 0)"/>
      </g>
     </g>
    </g>
    <g id="xtick_11">
     <g id="line2d_28">
      <g>
       <use xlink:href="#mbe841fcd6c" x="233.149606" y="123.590551" style="stroke: #000000; stroke-width: 0.8"/>
      </g>
     </g>
     <g id="text_23">
      <!-- 9.9 -->
      <g transform="translate(225.198044 138.188989) scale(0.1 -0.1)">
       <use xlink:href="#DejaVuSans-39"/>
       <use xlink:href="#DejaVuSans-2e" transform="translate(63.623047 0)"/>
       <use xlink:href="#DejaVuSans-39" transform="translate(95.410156 0)"/>
      </g>
     </g>
    </g>
   </g>
   <g id="matplotlib.axis_4">
    <g id="ytick_10"/>
    <g id="ytick_11"/>
    <g id="ytick_12"/>
   </g>
   <g id="line2d_29">
    <path d="M 66.683562 116.568361 
L 131.007874 116.469081 
L 132.395669 116.124916 
L 133.436516 115.656726 
L 134.338582 115.005123 
L 135.10187 114.183906 
L 135.865157 113.010512 
L 136.559055 111.532046 
L 137.252953 109.545791 
L 138.01624 106.62739 
L 138.779527 102.782102 
L 139.612205 97.368245 
L 140.514272 89.957201 
L 141.555118 79.469987 
L 142.942913 63.002529 
L 145.857283 27.77066 
L 146.89813 18.090668 
L 147.730807 12.234562 
L 148.424705 8.778653 
L 148.979823 6.976882 
L 149.465551 6.100084 
L 149.8125 5.864195 
L 150.090059 5.902476 
L 150.437008 6.223499 
L 150.853346 6.989765 
L 151.339075 8.372604 
L 151.963583 10.847981 
L 152.79626 15.195974 
L 153.837106 21.968632 
L 155.224902 32.60077 
L 158.000492 56.110131 
L 160.082185 72.77881 
L 161.60876 83.248538 
L 162.927166 90.761109 
L 164.106792 96.232707 
L 165.217028 100.356013 
L 166.257874 103.405968 
L 167.298721 105.77352 
L 168.270177 107.467932 
L 169.311024 108.83636 
L 170.35187 109.841797 
L 171.462107 110.613971 
L 172.780512 111.247808 
L 174.376477 111.757872 
L 176.874508 112.291313 
L 196.719981 115.834247 
L 200.189469 116.142549 
L 205.81004 116.371136 
L 215.732777 116.51903 
L 233.080218 116.568361 
L 233.080218 116.568361 
" clip-path="url(#pd6ca3c4e44)" style="fill: none; stroke: #0000ff; stroke-width: 1.5; stroke-linecap: square"/>
   </g>
   <g id="patch_8">
    <path d="M 66.614173 123.590551 
L 66.614173 46.346457 
" style="fill: none; stroke: #000000; stroke-width: 0.8; stroke-linejoin: miter; stroke-linecap: square"/>
   </g>
   <g id="patch_9">
    <path d="M 233.149606 123.590551 
L 233.149606 46.346457 
" style="fill: none; stroke: #000000; stroke-width: 0.8; stroke-linejoin: miter; stroke-linecap: square"/>
   </g>
   <g id="patch_10">
    <path d="M 66.614173 123.590551 
L 233.149606 123.590551 
" style="fill: none; stroke: #000000; stroke-width: 0.8; stroke-linejoin: miter; stroke-linecap: square"/>
   </g>
   <g id="patch_11">
    <path d="M 66.614173 46.346457 
L 233.149606 46.346457 
" style="fill: none; stroke: #000000; stroke-width: 0.8; stroke-linejoin: miter; stroke-linecap: square"/>
   </g>
  </g>
 </g>
 <defs>
  <clipPath id="p179accff91">
   <rect x="44.69774" y="3.00024" width="610.808752" height="268.748398"/>
  </clipPath>
  <clipPath id="pd6ca3c4e44">
   <rect x="66.614173" y="46.346457" width="166.535433" height="77.244094"/>
  </clipPath>
 </defs>
</svg>
